G75*
%MOIN*%
%OFA0B0*%
%FSLAX25Y25*%
%IPPOS*%
%LPD*%
%AMOC8*
5,1,8,0,0,1.08239X$1,22.5*
%
%ADD10C,0.00000*%
%ADD11C,0.01120*%
%ADD12C,0.07000*%
%ADD13C,0.13400*%
%ADD14OC8,0.05600*%
%ADD15OC8,0.06400*%
%ADD16C,0.16211*%
%ADD17C,0.16200*%
%ADD18C,0.04800*%
D10*
X0042595Y0025000D02*
X0042595Y0412500D01*
X0050095Y0420000D02*
X0430095Y0420000D01*
X0437595Y0412500D02*
X0437595Y0025000D01*
X0042595Y0025000D01*
X0058595Y0038500D02*
X0058597Y0038661D01*
X0058603Y0038821D01*
X0058613Y0038982D01*
X0058627Y0039142D01*
X0058645Y0039302D01*
X0058666Y0039461D01*
X0058692Y0039620D01*
X0058722Y0039778D01*
X0058755Y0039935D01*
X0058793Y0040092D01*
X0058834Y0040247D01*
X0058879Y0040401D01*
X0058928Y0040554D01*
X0058981Y0040706D01*
X0059037Y0040857D01*
X0059098Y0041006D01*
X0059161Y0041154D01*
X0059229Y0041300D01*
X0059300Y0041444D01*
X0059374Y0041586D01*
X0059452Y0041727D01*
X0059534Y0041865D01*
X0059619Y0042002D01*
X0059707Y0042136D01*
X0059799Y0042268D01*
X0059894Y0042398D01*
X0059992Y0042526D01*
X0060093Y0042651D01*
X0060197Y0042773D01*
X0060304Y0042893D01*
X0060414Y0043010D01*
X0060527Y0043125D01*
X0060643Y0043236D01*
X0060762Y0043345D01*
X0060883Y0043450D01*
X0061007Y0043553D01*
X0061133Y0043653D01*
X0061261Y0043749D01*
X0061392Y0043842D01*
X0061526Y0043932D01*
X0061661Y0044019D01*
X0061799Y0044102D01*
X0061938Y0044182D01*
X0062080Y0044258D01*
X0062223Y0044331D01*
X0062368Y0044400D01*
X0062515Y0044466D01*
X0062663Y0044528D01*
X0062813Y0044586D01*
X0062964Y0044641D01*
X0063117Y0044692D01*
X0063271Y0044739D01*
X0063426Y0044782D01*
X0063582Y0044821D01*
X0063738Y0044857D01*
X0063896Y0044888D01*
X0064054Y0044916D01*
X0064213Y0044940D01*
X0064373Y0044960D01*
X0064533Y0044976D01*
X0064693Y0044988D01*
X0064854Y0044996D01*
X0065015Y0045000D01*
X0065175Y0045000D01*
X0065336Y0044996D01*
X0065497Y0044988D01*
X0065657Y0044976D01*
X0065817Y0044960D01*
X0065977Y0044940D01*
X0066136Y0044916D01*
X0066294Y0044888D01*
X0066452Y0044857D01*
X0066608Y0044821D01*
X0066764Y0044782D01*
X0066919Y0044739D01*
X0067073Y0044692D01*
X0067226Y0044641D01*
X0067377Y0044586D01*
X0067527Y0044528D01*
X0067675Y0044466D01*
X0067822Y0044400D01*
X0067967Y0044331D01*
X0068110Y0044258D01*
X0068252Y0044182D01*
X0068391Y0044102D01*
X0068529Y0044019D01*
X0068664Y0043932D01*
X0068798Y0043842D01*
X0068929Y0043749D01*
X0069057Y0043653D01*
X0069183Y0043553D01*
X0069307Y0043450D01*
X0069428Y0043345D01*
X0069547Y0043236D01*
X0069663Y0043125D01*
X0069776Y0043010D01*
X0069886Y0042893D01*
X0069993Y0042773D01*
X0070097Y0042651D01*
X0070198Y0042526D01*
X0070296Y0042398D01*
X0070391Y0042268D01*
X0070483Y0042136D01*
X0070571Y0042002D01*
X0070656Y0041865D01*
X0070738Y0041727D01*
X0070816Y0041586D01*
X0070890Y0041444D01*
X0070961Y0041300D01*
X0071029Y0041154D01*
X0071092Y0041006D01*
X0071153Y0040857D01*
X0071209Y0040706D01*
X0071262Y0040554D01*
X0071311Y0040401D01*
X0071356Y0040247D01*
X0071397Y0040092D01*
X0071435Y0039935D01*
X0071468Y0039778D01*
X0071498Y0039620D01*
X0071524Y0039461D01*
X0071545Y0039302D01*
X0071563Y0039142D01*
X0071577Y0038982D01*
X0071587Y0038821D01*
X0071593Y0038661D01*
X0071595Y0038500D01*
X0071593Y0038339D01*
X0071587Y0038179D01*
X0071577Y0038018D01*
X0071563Y0037858D01*
X0071545Y0037698D01*
X0071524Y0037539D01*
X0071498Y0037380D01*
X0071468Y0037222D01*
X0071435Y0037065D01*
X0071397Y0036908D01*
X0071356Y0036753D01*
X0071311Y0036599D01*
X0071262Y0036446D01*
X0071209Y0036294D01*
X0071153Y0036143D01*
X0071092Y0035994D01*
X0071029Y0035846D01*
X0070961Y0035700D01*
X0070890Y0035556D01*
X0070816Y0035414D01*
X0070738Y0035273D01*
X0070656Y0035135D01*
X0070571Y0034998D01*
X0070483Y0034864D01*
X0070391Y0034732D01*
X0070296Y0034602D01*
X0070198Y0034474D01*
X0070097Y0034349D01*
X0069993Y0034227D01*
X0069886Y0034107D01*
X0069776Y0033990D01*
X0069663Y0033875D01*
X0069547Y0033764D01*
X0069428Y0033655D01*
X0069307Y0033550D01*
X0069183Y0033447D01*
X0069057Y0033347D01*
X0068929Y0033251D01*
X0068798Y0033158D01*
X0068664Y0033068D01*
X0068529Y0032981D01*
X0068391Y0032898D01*
X0068252Y0032818D01*
X0068110Y0032742D01*
X0067967Y0032669D01*
X0067822Y0032600D01*
X0067675Y0032534D01*
X0067527Y0032472D01*
X0067377Y0032414D01*
X0067226Y0032359D01*
X0067073Y0032308D01*
X0066919Y0032261D01*
X0066764Y0032218D01*
X0066608Y0032179D01*
X0066452Y0032143D01*
X0066294Y0032112D01*
X0066136Y0032084D01*
X0065977Y0032060D01*
X0065817Y0032040D01*
X0065657Y0032024D01*
X0065497Y0032012D01*
X0065336Y0032004D01*
X0065175Y0032000D01*
X0065015Y0032000D01*
X0064854Y0032004D01*
X0064693Y0032012D01*
X0064533Y0032024D01*
X0064373Y0032040D01*
X0064213Y0032060D01*
X0064054Y0032084D01*
X0063896Y0032112D01*
X0063738Y0032143D01*
X0063582Y0032179D01*
X0063426Y0032218D01*
X0063271Y0032261D01*
X0063117Y0032308D01*
X0062964Y0032359D01*
X0062813Y0032414D01*
X0062663Y0032472D01*
X0062515Y0032534D01*
X0062368Y0032600D01*
X0062223Y0032669D01*
X0062080Y0032742D01*
X0061938Y0032818D01*
X0061799Y0032898D01*
X0061661Y0032981D01*
X0061526Y0033068D01*
X0061392Y0033158D01*
X0061261Y0033251D01*
X0061133Y0033347D01*
X0061007Y0033447D01*
X0060883Y0033550D01*
X0060762Y0033655D01*
X0060643Y0033764D01*
X0060527Y0033875D01*
X0060414Y0033990D01*
X0060304Y0034107D01*
X0060197Y0034227D01*
X0060093Y0034349D01*
X0059992Y0034474D01*
X0059894Y0034602D01*
X0059799Y0034732D01*
X0059707Y0034864D01*
X0059619Y0034998D01*
X0059534Y0035135D01*
X0059452Y0035273D01*
X0059374Y0035414D01*
X0059300Y0035556D01*
X0059229Y0035700D01*
X0059161Y0035846D01*
X0059098Y0035994D01*
X0059037Y0036143D01*
X0058981Y0036294D01*
X0058928Y0036446D01*
X0058879Y0036599D01*
X0058834Y0036753D01*
X0058793Y0036908D01*
X0058755Y0037065D01*
X0058722Y0037222D01*
X0058692Y0037380D01*
X0058666Y0037539D01*
X0058645Y0037698D01*
X0058627Y0037858D01*
X0058613Y0038018D01*
X0058603Y0038179D01*
X0058597Y0038339D01*
X0058595Y0038500D01*
X0042596Y0412499D02*
X0042667Y0412748D01*
X0042743Y0412994D01*
X0042826Y0413238D01*
X0042915Y0413481D01*
X0043009Y0413721D01*
X0043110Y0413959D01*
X0043216Y0414194D01*
X0043327Y0414427D01*
X0043445Y0414657D01*
X0043567Y0414884D01*
X0043696Y0415108D01*
X0043829Y0415329D01*
X0043968Y0415546D01*
X0044112Y0415760D01*
X0044261Y0415971D01*
X0044415Y0416178D01*
X0044575Y0416381D01*
X0044739Y0416580D01*
X0044908Y0416776D01*
X0045081Y0416967D01*
X0045259Y0417153D01*
X0045442Y0417336D01*
X0045628Y0417514D01*
X0045819Y0417687D01*
X0046015Y0417856D01*
X0046214Y0418020D01*
X0046417Y0418180D01*
X0046624Y0418334D01*
X0046835Y0418483D01*
X0047049Y0418627D01*
X0047266Y0418766D01*
X0047487Y0418899D01*
X0047711Y0419028D01*
X0047938Y0419150D01*
X0048168Y0419268D01*
X0048401Y0419379D01*
X0048636Y0419485D01*
X0048874Y0419586D01*
X0049114Y0419680D01*
X0049357Y0419769D01*
X0049601Y0419852D01*
X0049847Y0419928D01*
X0050096Y0419999D01*
X0430095Y0419999D02*
X0430344Y0419928D01*
X0430590Y0419852D01*
X0430834Y0419769D01*
X0431077Y0419680D01*
X0431317Y0419586D01*
X0431555Y0419485D01*
X0431790Y0419379D01*
X0432023Y0419268D01*
X0432253Y0419150D01*
X0432480Y0419028D01*
X0432704Y0418899D01*
X0432925Y0418766D01*
X0433142Y0418627D01*
X0433356Y0418483D01*
X0433567Y0418334D01*
X0433774Y0418180D01*
X0433977Y0418020D01*
X0434176Y0417856D01*
X0434372Y0417687D01*
X0434563Y0417514D01*
X0434749Y0417336D01*
X0434932Y0417153D01*
X0435110Y0416967D01*
X0435283Y0416776D01*
X0435452Y0416580D01*
X0435616Y0416381D01*
X0435776Y0416178D01*
X0435930Y0415971D01*
X0436079Y0415760D01*
X0436223Y0415546D01*
X0436362Y0415329D01*
X0436495Y0415108D01*
X0436624Y0414884D01*
X0436746Y0414657D01*
X0436864Y0414427D01*
X0436975Y0414194D01*
X0437081Y0413959D01*
X0437182Y0413721D01*
X0437276Y0413481D01*
X0437365Y0413238D01*
X0437448Y0412994D01*
X0437524Y0412748D01*
X0437595Y0412499D01*
D11*
X0108011Y0076072D02*
X0107451Y0076632D01*
X0109307Y0076632D01*
X0110618Y0075321D01*
X0110618Y0073465D01*
X0109307Y0072154D01*
X0107451Y0072154D01*
X0106140Y0073465D01*
X0106140Y0075321D01*
X0107451Y0076632D01*
X0107799Y0075792D01*
X0108959Y0075792D01*
X0109778Y0074973D01*
X0109778Y0073813D01*
X0108959Y0072994D01*
X0107799Y0072994D01*
X0106980Y0073813D01*
X0106980Y0074973D01*
X0107799Y0075792D01*
X0108147Y0074952D01*
X0108611Y0074952D01*
X0108938Y0074625D01*
X0108938Y0074161D01*
X0108611Y0073834D01*
X0108147Y0073834D01*
X0107820Y0074161D01*
X0107820Y0074625D01*
X0108147Y0074952D01*
X0086798Y0097286D02*
X0086238Y0097846D01*
X0088094Y0097846D01*
X0089405Y0096535D01*
X0089405Y0094679D01*
X0088094Y0093368D01*
X0086238Y0093368D01*
X0084927Y0094679D01*
X0084927Y0096535D01*
X0086238Y0097846D01*
X0086586Y0097006D01*
X0087746Y0097006D01*
X0088565Y0096187D01*
X0088565Y0095027D01*
X0087746Y0094208D01*
X0086586Y0094208D01*
X0085767Y0095027D01*
X0085767Y0096187D01*
X0086586Y0097006D01*
X0086934Y0096166D01*
X0087398Y0096166D01*
X0087725Y0095839D01*
X0087725Y0095375D01*
X0087398Y0095048D01*
X0086934Y0095048D01*
X0086607Y0095375D01*
X0086607Y0095839D01*
X0086934Y0096166D01*
X0070980Y0118294D02*
X0071540Y0117734D01*
X0069796Y0118369D01*
X0069013Y0120049D01*
X0069648Y0121793D01*
X0071328Y0122576D01*
X0073072Y0121941D01*
X0073855Y0120261D01*
X0073220Y0118517D01*
X0071540Y0117734D01*
X0071500Y0118642D01*
X0070410Y0119039D01*
X0069921Y0120089D01*
X0070318Y0121179D01*
X0071368Y0121668D01*
X0072458Y0121271D01*
X0072947Y0120221D01*
X0072550Y0119131D01*
X0071500Y0118642D01*
X0071461Y0119550D01*
X0071025Y0119709D01*
X0070829Y0120128D01*
X0070988Y0120564D01*
X0071407Y0120760D01*
X0071843Y0120601D01*
X0072039Y0120182D01*
X0071880Y0119746D01*
X0071461Y0119550D01*
X0058302Y0145484D02*
X0058862Y0144924D01*
X0057118Y0145559D01*
X0056335Y0147239D01*
X0056970Y0148983D01*
X0058650Y0149766D01*
X0060394Y0149131D01*
X0061177Y0147451D01*
X0060542Y0145707D01*
X0058862Y0144924D01*
X0058822Y0145832D01*
X0057732Y0146229D01*
X0057243Y0147279D01*
X0057640Y0148369D01*
X0058690Y0148858D01*
X0059780Y0148461D01*
X0060269Y0147411D01*
X0059872Y0146321D01*
X0058822Y0145832D01*
X0058783Y0146740D01*
X0058347Y0146899D01*
X0058151Y0147318D01*
X0058310Y0147754D01*
X0058729Y0147950D01*
X0059165Y0147791D01*
X0059361Y0147372D01*
X0059202Y0146936D01*
X0058783Y0146740D01*
D12*
X0055095Y0110800D02*
X0055095Y0104200D01*
X0065095Y0104200D02*
X0065095Y0110800D01*
X0075095Y0110800D02*
X0075095Y0104200D01*
D13*
X0065095Y0038500D03*
D14*
X0140095Y0035000D03*
X0160095Y0035000D03*
X0052595Y0123750D03*
X0052595Y0133750D03*
X0052595Y0322500D03*
X0052595Y0352500D03*
D15*
X0048845Y0147500D03*
X0240095Y0223000D03*
X0391345Y0376250D03*
X0397595Y0088750D03*
D16*
X0427595Y0035000D03*
X0342595Y0035000D03*
X0427595Y0410000D03*
X0052595Y0410000D03*
D17*
X0105095Y0058937D03*
X0123599Y0047126D03*
X0105095Y0035315D03*
D18*
X0069274Y0377929D03*
X0069274Y0392071D03*
X0083416Y0392071D03*
M02*
