G75*
%MOIN*%
%OFA0B0*%
%FSLAX25Y25*%
%IPPOS*%
%LPD*%
%AMOC8*
5,1,8,0,0,1.08239X$1,22.5*
%
%ADD10C,0.00000*%
%ADD11C,0.01040*%
%ADD12C,0.06600*%
%ADD13OC8,0.05200*%
%ADD14OC8,0.06000*%
%ADD15C,0.15811*%
%ADD16C,0.15800*%
%ADD17R,0.07874X0.07874*%
%ADD18C,0.07874*%
%ADD19C,0.04400*%
%ADD20C,0.06299*%
%ADD21C,0.05906*%
%ADD22C,0.01600*%
%ADD23C,0.01000*%
%ADD24C,0.05600*%
D10*
X0042595Y0025000D02*
X0042595Y0412500D01*
X0050095Y0420000D02*
X0430095Y0420000D01*
X0437595Y0412500D02*
X0437595Y0025000D01*
X0042595Y0025000D01*
X0058595Y0038500D02*
X0058597Y0038661D01*
X0058603Y0038821D01*
X0058613Y0038982D01*
X0058627Y0039142D01*
X0058645Y0039302D01*
X0058666Y0039461D01*
X0058692Y0039620D01*
X0058722Y0039778D01*
X0058755Y0039935D01*
X0058793Y0040092D01*
X0058834Y0040247D01*
X0058879Y0040401D01*
X0058928Y0040554D01*
X0058981Y0040706D01*
X0059037Y0040857D01*
X0059098Y0041006D01*
X0059161Y0041154D01*
X0059229Y0041300D01*
X0059300Y0041444D01*
X0059374Y0041586D01*
X0059452Y0041727D01*
X0059534Y0041865D01*
X0059619Y0042002D01*
X0059707Y0042136D01*
X0059799Y0042268D01*
X0059894Y0042398D01*
X0059992Y0042526D01*
X0060093Y0042651D01*
X0060197Y0042773D01*
X0060304Y0042893D01*
X0060414Y0043010D01*
X0060527Y0043125D01*
X0060643Y0043236D01*
X0060762Y0043345D01*
X0060883Y0043450D01*
X0061007Y0043553D01*
X0061133Y0043653D01*
X0061261Y0043749D01*
X0061392Y0043842D01*
X0061526Y0043932D01*
X0061661Y0044019D01*
X0061799Y0044102D01*
X0061938Y0044182D01*
X0062080Y0044258D01*
X0062223Y0044331D01*
X0062368Y0044400D01*
X0062515Y0044466D01*
X0062663Y0044528D01*
X0062813Y0044586D01*
X0062964Y0044641D01*
X0063117Y0044692D01*
X0063271Y0044739D01*
X0063426Y0044782D01*
X0063582Y0044821D01*
X0063738Y0044857D01*
X0063896Y0044888D01*
X0064054Y0044916D01*
X0064213Y0044940D01*
X0064373Y0044960D01*
X0064533Y0044976D01*
X0064693Y0044988D01*
X0064854Y0044996D01*
X0065015Y0045000D01*
X0065175Y0045000D01*
X0065336Y0044996D01*
X0065497Y0044988D01*
X0065657Y0044976D01*
X0065817Y0044960D01*
X0065977Y0044940D01*
X0066136Y0044916D01*
X0066294Y0044888D01*
X0066452Y0044857D01*
X0066608Y0044821D01*
X0066764Y0044782D01*
X0066919Y0044739D01*
X0067073Y0044692D01*
X0067226Y0044641D01*
X0067377Y0044586D01*
X0067527Y0044528D01*
X0067675Y0044466D01*
X0067822Y0044400D01*
X0067967Y0044331D01*
X0068110Y0044258D01*
X0068252Y0044182D01*
X0068391Y0044102D01*
X0068529Y0044019D01*
X0068664Y0043932D01*
X0068798Y0043842D01*
X0068929Y0043749D01*
X0069057Y0043653D01*
X0069183Y0043553D01*
X0069307Y0043450D01*
X0069428Y0043345D01*
X0069547Y0043236D01*
X0069663Y0043125D01*
X0069776Y0043010D01*
X0069886Y0042893D01*
X0069993Y0042773D01*
X0070097Y0042651D01*
X0070198Y0042526D01*
X0070296Y0042398D01*
X0070391Y0042268D01*
X0070483Y0042136D01*
X0070571Y0042002D01*
X0070656Y0041865D01*
X0070738Y0041727D01*
X0070816Y0041586D01*
X0070890Y0041444D01*
X0070961Y0041300D01*
X0071029Y0041154D01*
X0071092Y0041006D01*
X0071153Y0040857D01*
X0071209Y0040706D01*
X0071262Y0040554D01*
X0071311Y0040401D01*
X0071356Y0040247D01*
X0071397Y0040092D01*
X0071435Y0039935D01*
X0071468Y0039778D01*
X0071498Y0039620D01*
X0071524Y0039461D01*
X0071545Y0039302D01*
X0071563Y0039142D01*
X0071577Y0038982D01*
X0071587Y0038821D01*
X0071593Y0038661D01*
X0071595Y0038500D01*
X0071593Y0038339D01*
X0071587Y0038179D01*
X0071577Y0038018D01*
X0071563Y0037858D01*
X0071545Y0037698D01*
X0071524Y0037539D01*
X0071498Y0037380D01*
X0071468Y0037222D01*
X0071435Y0037065D01*
X0071397Y0036908D01*
X0071356Y0036753D01*
X0071311Y0036599D01*
X0071262Y0036446D01*
X0071209Y0036294D01*
X0071153Y0036143D01*
X0071092Y0035994D01*
X0071029Y0035846D01*
X0070961Y0035700D01*
X0070890Y0035556D01*
X0070816Y0035414D01*
X0070738Y0035273D01*
X0070656Y0035135D01*
X0070571Y0034998D01*
X0070483Y0034864D01*
X0070391Y0034732D01*
X0070296Y0034602D01*
X0070198Y0034474D01*
X0070097Y0034349D01*
X0069993Y0034227D01*
X0069886Y0034107D01*
X0069776Y0033990D01*
X0069663Y0033875D01*
X0069547Y0033764D01*
X0069428Y0033655D01*
X0069307Y0033550D01*
X0069183Y0033447D01*
X0069057Y0033347D01*
X0068929Y0033251D01*
X0068798Y0033158D01*
X0068664Y0033068D01*
X0068529Y0032981D01*
X0068391Y0032898D01*
X0068252Y0032818D01*
X0068110Y0032742D01*
X0067967Y0032669D01*
X0067822Y0032600D01*
X0067675Y0032534D01*
X0067527Y0032472D01*
X0067377Y0032414D01*
X0067226Y0032359D01*
X0067073Y0032308D01*
X0066919Y0032261D01*
X0066764Y0032218D01*
X0066608Y0032179D01*
X0066452Y0032143D01*
X0066294Y0032112D01*
X0066136Y0032084D01*
X0065977Y0032060D01*
X0065817Y0032040D01*
X0065657Y0032024D01*
X0065497Y0032012D01*
X0065336Y0032004D01*
X0065175Y0032000D01*
X0065015Y0032000D01*
X0064854Y0032004D01*
X0064693Y0032012D01*
X0064533Y0032024D01*
X0064373Y0032040D01*
X0064213Y0032060D01*
X0064054Y0032084D01*
X0063896Y0032112D01*
X0063738Y0032143D01*
X0063582Y0032179D01*
X0063426Y0032218D01*
X0063271Y0032261D01*
X0063117Y0032308D01*
X0062964Y0032359D01*
X0062813Y0032414D01*
X0062663Y0032472D01*
X0062515Y0032534D01*
X0062368Y0032600D01*
X0062223Y0032669D01*
X0062080Y0032742D01*
X0061938Y0032818D01*
X0061799Y0032898D01*
X0061661Y0032981D01*
X0061526Y0033068D01*
X0061392Y0033158D01*
X0061261Y0033251D01*
X0061133Y0033347D01*
X0061007Y0033447D01*
X0060883Y0033550D01*
X0060762Y0033655D01*
X0060643Y0033764D01*
X0060527Y0033875D01*
X0060414Y0033990D01*
X0060304Y0034107D01*
X0060197Y0034227D01*
X0060093Y0034349D01*
X0059992Y0034474D01*
X0059894Y0034602D01*
X0059799Y0034732D01*
X0059707Y0034864D01*
X0059619Y0034998D01*
X0059534Y0035135D01*
X0059452Y0035273D01*
X0059374Y0035414D01*
X0059300Y0035556D01*
X0059229Y0035700D01*
X0059161Y0035846D01*
X0059098Y0035994D01*
X0059037Y0036143D01*
X0058981Y0036294D01*
X0058928Y0036446D01*
X0058879Y0036599D01*
X0058834Y0036753D01*
X0058793Y0036908D01*
X0058755Y0037065D01*
X0058722Y0037222D01*
X0058692Y0037380D01*
X0058666Y0037539D01*
X0058645Y0037698D01*
X0058627Y0037858D01*
X0058613Y0038018D01*
X0058603Y0038179D01*
X0058597Y0038339D01*
X0058595Y0038500D01*
X0042596Y0412499D02*
X0042667Y0412748D01*
X0042743Y0412994D01*
X0042826Y0413238D01*
X0042915Y0413481D01*
X0043009Y0413721D01*
X0043110Y0413959D01*
X0043216Y0414194D01*
X0043327Y0414427D01*
X0043445Y0414657D01*
X0043567Y0414884D01*
X0043696Y0415108D01*
X0043829Y0415329D01*
X0043968Y0415546D01*
X0044112Y0415760D01*
X0044261Y0415971D01*
X0044415Y0416178D01*
X0044575Y0416381D01*
X0044739Y0416580D01*
X0044908Y0416776D01*
X0045081Y0416967D01*
X0045259Y0417153D01*
X0045442Y0417336D01*
X0045628Y0417514D01*
X0045819Y0417687D01*
X0046015Y0417856D01*
X0046214Y0418020D01*
X0046417Y0418180D01*
X0046624Y0418334D01*
X0046835Y0418483D01*
X0047049Y0418627D01*
X0047266Y0418766D01*
X0047487Y0418899D01*
X0047711Y0419028D01*
X0047938Y0419150D01*
X0048168Y0419268D01*
X0048401Y0419379D01*
X0048636Y0419485D01*
X0048874Y0419586D01*
X0049114Y0419680D01*
X0049357Y0419769D01*
X0049601Y0419852D01*
X0049847Y0419928D01*
X0050096Y0419999D01*
X0430095Y0419999D02*
X0430344Y0419928D01*
X0430590Y0419852D01*
X0430834Y0419769D01*
X0431077Y0419680D01*
X0431317Y0419586D01*
X0431555Y0419485D01*
X0431790Y0419379D01*
X0432023Y0419268D01*
X0432253Y0419150D01*
X0432480Y0419028D01*
X0432704Y0418899D01*
X0432925Y0418766D01*
X0433142Y0418627D01*
X0433356Y0418483D01*
X0433567Y0418334D01*
X0433774Y0418180D01*
X0433977Y0418020D01*
X0434176Y0417856D01*
X0434372Y0417687D01*
X0434563Y0417514D01*
X0434749Y0417336D01*
X0434932Y0417153D01*
X0435110Y0416967D01*
X0435283Y0416776D01*
X0435452Y0416580D01*
X0435616Y0416381D01*
X0435776Y0416178D01*
X0435930Y0415971D01*
X0436079Y0415760D01*
X0436223Y0415546D01*
X0436362Y0415329D01*
X0436495Y0415108D01*
X0436624Y0414884D01*
X0436746Y0414657D01*
X0436864Y0414427D01*
X0436975Y0414194D01*
X0437081Y0413959D01*
X0437182Y0413721D01*
X0437276Y0413481D01*
X0437365Y0413238D01*
X0437448Y0412994D01*
X0437524Y0412748D01*
X0437595Y0412499D01*
D11*
X0108038Y0075952D02*
X0107518Y0076472D01*
X0109240Y0076472D01*
X0110458Y0075254D01*
X0110458Y0073532D01*
X0109240Y0072314D01*
X0107518Y0072314D01*
X0106300Y0073532D01*
X0106300Y0075254D01*
X0107518Y0076472D01*
X0107841Y0075692D01*
X0108917Y0075692D01*
X0109678Y0074931D01*
X0109678Y0073855D01*
X0108917Y0073094D01*
X0107841Y0073094D01*
X0107080Y0073855D01*
X0107080Y0074931D01*
X0107841Y0075692D01*
X0108164Y0074912D01*
X0108594Y0074912D01*
X0108898Y0074608D01*
X0108898Y0074178D01*
X0108594Y0073874D01*
X0108164Y0073874D01*
X0107860Y0074178D01*
X0107860Y0074608D01*
X0108164Y0074912D01*
X0086825Y0097166D02*
X0086305Y0097686D01*
X0088027Y0097686D01*
X0089245Y0096468D01*
X0089245Y0094746D01*
X0088027Y0093528D01*
X0086305Y0093528D01*
X0085087Y0094746D01*
X0085087Y0096468D01*
X0086305Y0097686D01*
X0086628Y0096906D01*
X0087704Y0096906D01*
X0088465Y0096145D01*
X0088465Y0095069D01*
X0087704Y0094308D01*
X0086628Y0094308D01*
X0085867Y0095069D01*
X0085867Y0096145D01*
X0086628Y0096906D01*
X0086951Y0096126D01*
X0087381Y0096126D01*
X0087685Y0095822D01*
X0087685Y0095392D01*
X0087381Y0095088D01*
X0086951Y0095088D01*
X0086647Y0095392D01*
X0086647Y0095822D01*
X0086951Y0096126D01*
X0071012Y0118427D02*
X0071532Y0117907D01*
X0069913Y0118496D01*
X0069186Y0120057D01*
X0069775Y0121676D01*
X0071336Y0122403D01*
X0072955Y0121814D01*
X0073682Y0120253D01*
X0073093Y0118634D01*
X0071532Y0117907D01*
X0071495Y0118750D01*
X0070484Y0119119D01*
X0070029Y0120094D01*
X0070398Y0121105D01*
X0071373Y0121560D01*
X0072384Y0121191D01*
X0072839Y0120216D01*
X0072470Y0119205D01*
X0071495Y0118750D01*
X0071458Y0119593D01*
X0071054Y0119741D01*
X0070872Y0120131D01*
X0071020Y0120535D01*
X0071410Y0120717D01*
X0071814Y0120569D01*
X0071996Y0120179D01*
X0071848Y0119775D01*
X0071458Y0119593D01*
X0058334Y0145617D02*
X0058854Y0145097D01*
X0057235Y0145686D01*
X0056508Y0147247D01*
X0057097Y0148866D01*
X0058658Y0149593D01*
X0060277Y0149004D01*
X0061004Y0147443D01*
X0060415Y0145824D01*
X0058854Y0145097D01*
X0058817Y0145940D01*
X0057806Y0146309D01*
X0057351Y0147284D01*
X0057720Y0148295D01*
X0058695Y0148750D01*
X0059706Y0148381D01*
X0060161Y0147406D01*
X0059792Y0146395D01*
X0058817Y0145940D01*
X0058780Y0146783D01*
X0058376Y0146931D01*
X0058194Y0147321D01*
X0058342Y0147725D01*
X0058732Y0147907D01*
X0059136Y0147759D01*
X0059318Y0147369D01*
X0059170Y0146965D01*
X0058780Y0146783D01*
D12*
X0055095Y0110800D02*
X0055095Y0104200D01*
X0065095Y0104200D02*
X0065095Y0110800D01*
X0075095Y0110800D02*
X0075095Y0104200D01*
D13*
X0052595Y0123750D03*
X0052595Y0133750D03*
X0140095Y0035000D03*
X0160095Y0035000D03*
X0052595Y0322500D03*
X0052595Y0352500D03*
D14*
X0048845Y0147500D03*
X0240095Y0223000D03*
X0391345Y0376250D03*
X0397595Y0088750D03*
D15*
X0427595Y0035000D03*
X0342595Y0035000D03*
X0427595Y0410000D03*
X0052595Y0410000D03*
D16*
X0105095Y0058937D03*
X0123599Y0047126D03*
X0105095Y0035315D03*
D17*
X0100095Y0088750D03*
D18*
X0125095Y0108750D03*
D19*
X0069274Y0377929D03*
X0069274Y0392071D03*
X0083416Y0392071D03*
D20*
X0116845Y0101500D03*
D21*
X0115513Y0102532D02*
X0107138Y0111372D01*
X0099395Y0120780D01*
X0092325Y0130710D01*
X0085960Y0141116D01*
X0080334Y0151946D01*
X0075474Y0163148D01*
X0071406Y0174668D01*
X0068149Y0186451D01*
X0065721Y0198439D01*
X0064134Y0210573D01*
X0063397Y0222796D01*
X0063515Y0235046D01*
X0064488Y0247266D01*
X0066311Y0259394D01*
X0068978Y0271372D01*
X0072476Y0283141D01*
X0076788Y0294644D01*
X0081895Y0305825D01*
X0087774Y0316627D01*
X0094394Y0326999D01*
X0101727Y0336889D01*
X0109735Y0346249D01*
X0118382Y0355032D01*
X0127626Y0363194D01*
X0137422Y0370696D01*
X0147723Y0377501D01*
X0158479Y0383573D01*
X0169639Y0388883D01*
X0181148Y0393404D01*
X0192951Y0397113D01*
X0204991Y0399992D01*
X0217208Y0402024D01*
X0229545Y0403200D01*
X0241940Y0403512D01*
X0254333Y0402959D01*
X0266665Y0401542D01*
X0278873Y0399267D01*
X0290900Y0396144D01*
X0302687Y0392187D01*
X0314174Y0387415D01*
X0325307Y0381851D01*
X0336031Y0375520D01*
X0346291Y0368453D01*
X0356040Y0360682D01*
X0365227Y0352246D01*
X0373808Y0343185D01*
X0381741Y0333542D01*
X0388985Y0323364D01*
X0395505Y0312699D01*
X0401268Y0301600D01*
X0406246Y0290120D01*
X0410413Y0278313D01*
X0413748Y0266239D01*
X0416234Y0253955D01*
X0417858Y0241520D01*
X0418610Y0228996D01*
X0418487Y0216443D01*
X0417489Y0203923D01*
X0415617Y0191496D01*
X0412883Y0179223D01*
X0409297Y0167164D01*
X0404876Y0155379D01*
X0399641Y0143925D01*
X0393616Y0132858D01*
X0386831Y0122233D01*
X0379317Y0112101D01*
X0371110Y0102513D01*
X0362249Y0093517D01*
X0352777Y0085156D01*
X0342740Y0077472D01*
X0332186Y0070503D01*
X0321165Y0064284D01*
X0309731Y0058846D01*
X0297940Y0054217D01*
X0285847Y0050419D01*
X0273513Y0047473D01*
X0260997Y0045393D01*
X0248359Y0044191D01*
X0235662Y0043873D01*
X0222967Y0044442D01*
X0210336Y0045896D01*
X0197830Y0048229D01*
X0185511Y0051430D01*
X0173439Y0055486D01*
X0161673Y0060375D01*
X0150271Y0066077D01*
X0139288Y0072564D01*
X0128780Y0079805D01*
X0118797Y0087765D01*
X0109388Y0096407D01*
X0100601Y0105690D01*
X0092478Y0115567D01*
X0085061Y0125993D01*
X0078385Y0136917D01*
X0072484Y0148285D01*
X0067388Y0160044D01*
X0063123Y0172136D01*
X0059710Y0184503D01*
X0057166Y0197084D01*
X0055506Y0209818D01*
X0054737Y0222644D01*
X0054866Y0235499D01*
X0055891Y0248321D01*
X0057809Y0261047D01*
X0060612Y0273614D01*
X0064286Y0285961D01*
X0068815Y0298028D01*
X0074178Y0309757D01*
X0080349Y0321088D01*
X0087299Y0331967D01*
X0094995Y0342340D01*
X0103401Y0352156D01*
X0112475Y0361366D01*
X0122175Y0369926D01*
X0132454Y0377792D01*
X0143262Y0384925D01*
X0154547Y0391290D01*
X0166254Y0396856D01*
X0178328Y0401594D01*
X0190709Y0405480D01*
X0203338Y0408494D01*
X0216153Y0410621D01*
X0229091Y0411849D01*
X0242091Y0412173D01*
X0255088Y0411588D01*
X0268019Y0410097D01*
X0280822Y0407706D01*
X0293433Y0404427D01*
X0305791Y0400273D01*
X0317835Y0395265D01*
X0329506Y0389426D01*
X0340748Y0382784D01*
X0351504Y0375369D01*
X0361722Y0367219D01*
X0371352Y0358371D01*
X0380345Y0348867D01*
X0388658Y0338755D01*
X0396249Y0328082D01*
X0403081Y0316898D01*
X0409118Y0305260D01*
X0414332Y0293224D01*
X0418696Y0280846D01*
X0422187Y0268187D01*
X0424789Y0255309D01*
X0426486Y0242275D01*
X0427270Y0229147D01*
X0427137Y0215990D01*
X0426085Y0202867D01*
X0424120Y0189843D01*
X0421249Y0176981D01*
X0417486Y0164345D01*
X0412849Y0151995D01*
X0407359Y0139993D01*
X0401040Y0128397D01*
X0393926Y0117265D01*
X0386048Y0106650D01*
X0377444Y0096606D01*
X0368156Y0087182D01*
X0358228Y0078424D01*
X0347708Y0070377D01*
X0336647Y0063079D01*
X0325097Y0056566D01*
X0313115Y0050873D01*
X0300759Y0046028D01*
X0288089Y0042053D01*
X0275166Y0038971D01*
X0262053Y0036796D01*
X0248813Y0035541D01*
X0235511Y0035213D01*
X0222212Y0035814D01*
X0208981Y0037342D01*
X0195882Y0039790D01*
X0182979Y0043148D01*
X0170335Y0047399D01*
X0158013Y0052525D01*
X0146072Y0058502D01*
X0134571Y0065300D01*
X0123567Y0072888D01*
X0113114Y0081228D01*
X0103264Y0090283D01*
X0115513Y0102532D02*
X0124479Y0094302D01*
X0125280Y0093664D01*
X0133992Y0086722D01*
X0144006Y0079828D01*
X0154470Y0073653D01*
X0165334Y0068225D01*
X0176543Y0063572D01*
X0188044Y0059713D01*
X0199778Y0056669D01*
X0211691Y0054451D01*
X0223722Y0053071D01*
X0235814Y0052533D01*
X0247906Y0052841D01*
X0259941Y0053990D01*
X0271860Y0055975D01*
X0283606Y0058786D01*
X0295120Y0062407D01*
X0306347Y0066819D01*
X0317232Y0072001D01*
X0327725Y0077927D01*
X0337772Y0084567D01*
X0347326Y0091887D01*
X0356342Y0099851D01*
X0364775Y0108421D01*
X0372586Y0117552D01*
X0379736Y0127201D01*
X0386192Y0137319D01*
X0391924Y0147857D01*
X0396903Y0158764D01*
X0401107Y0169984D01*
X0404516Y0181465D01*
X0407115Y0193148D01*
X0408892Y0204978D01*
X0409838Y0216896D01*
X0409950Y0228845D01*
X0409229Y0240765D01*
X0407679Y0252600D01*
X0405308Y0264291D01*
X0402130Y0275781D01*
X0398160Y0287016D01*
X0393419Y0297940D01*
X0387930Y0308500D01*
X0381721Y0318647D01*
X0374824Y0328330D01*
X0367272Y0337503D01*
X0359103Y0346122D01*
X0350357Y0354145D01*
X0341079Y0361535D01*
X0331313Y0368256D01*
X0321108Y0374275D01*
X0310514Y0379566D01*
X0299583Y0384101D01*
X0288368Y0387861D01*
X0276925Y0390827D01*
X0265310Y0392987D01*
X0253578Y0394331D01*
X0241789Y0394852D01*
X0229998Y0394550D01*
X0218264Y0393427D01*
X0206643Y0391489D01*
X0195193Y0388747D01*
X0183968Y0385215D01*
X0173023Y0380910D01*
X0162411Y0375856D01*
X0152184Y0370076D01*
X0142390Y0363601D01*
X0133077Y0356463D01*
X0124289Y0348697D01*
X0116070Y0340342D01*
X0108458Y0331438D01*
X0101489Y0322031D01*
X0095198Y0312166D01*
X0089613Y0301892D01*
X0084761Y0291260D01*
X0080665Y0280322D01*
X0077344Y0269130D01*
X0074813Y0257741D01*
X0073084Y0246210D01*
X0072165Y0234593D01*
X0072058Y0222947D01*
X0072763Y0211328D01*
X0074276Y0199794D01*
X0076589Y0188399D01*
X0079689Y0177201D01*
X0083560Y0166252D01*
X0088184Y0155607D01*
X0093536Y0145315D01*
X0099589Y0135428D01*
X0106313Y0125992D01*
X0113675Y0117054D01*
X0121637Y0108656D01*
D22*
X0121637Y0108750D01*
X0125095Y0108750D01*
X0117444Y0101500D02*
X0116845Y0101500D01*
X0117444Y0101500D02*
X0117633Y0101498D01*
X0117823Y0101491D01*
X0118012Y0101479D01*
X0118200Y0101463D01*
X0118389Y0101443D01*
X0118576Y0101418D01*
X0118763Y0101388D01*
X0118950Y0101354D01*
X0119135Y0101315D01*
X0119319Y0101272D01*
X0119503Y0101225D01*
X0119685Y0101173D01*
X0119865Y0101116D01*
X0120045Y0101056D01*
X0120223Y0100991D01*
X0120399Y0100922D01*
X0120573Y0100848D01*
X0120746Y0100770D01*
X0120917Y0100688D01*
X0121086Y0100602D01*
X0121252Y0100512D01*
X0121417Y0100418D01*
X0121579Y0100320D01*
X0121738Y0100219D01*
X0121895Y0100113D01*
X0122050Y0100003D01*
X0122202Y0099890D01*
X0122351Y0099774D01*
X0122497Y0099653D01*
X0122640Y0099529D01*
X0122780Y0099402D01*
X0122918Y0099271D01*
X0123051Y0099138D01*
X0123182Y0099000D01*
X0123309Y0098860D01*
X0123433Y0098717D01*
X0123554Y0098571D01*
X0123670Y0098422D01*
X0123783Y0098270D01*
X0123893Y0098115D01*
X0123999Y0097958D01*
X0124100Y0097799D01*
X0124198Y0097637D01*
X0124292Y0097472D01*
X0124382Y0097306D01*
X0124468Y0097137D01*
X0124550Y0096966D01*
X0124628Y0096793D01*
X0124702Y0096619D01*
X0124771Y0096443D01*
X0124836Y0096265D01*
X0124896Y0096085D01*
X0124953Y0095905D01*
X0125005Y0095723D01*
X0125052Y0095539D01*
X0125095Y0095355D01*
X0125134Y0095170D01*
X0125168Y0094983D01*
X0125198Y0094796D01*
X0125223Y0094609D01*
X0125243Y0094420D01*
X0125259Y0094232D01*
X0125271Y0094043D01*
X0125278Y0093853D01*
X0125280Y0093664D01*
X0103264Y0090283D02*
X0100095Y0090283D01*
X0100095Y0088750D01*
X0071434Y0120155D02*
X0065095Y0136250D01*
X0065184Y0146161D01*
X0065185Y0146161D02*
X0065104Y0146484D01*
X0065015Y0146806D01*
X0064919Y0147125D01*
X0064815Y0147441D01*
X0064703Y0147755D01*
X0064583Y0148066D01*
X0064456Y0148374D01*
X0064321Y0148679D01*
X0064179Y0148980D01*
X0064029Y0149278D01*
X0063872Y0149572D01*
X0063708Y0149862D01*
X0063537Y0150148D01*
X0063359Y0150430D01*
X0063174Y0150707D01*
X0062983Y0150980D01*
X0062784Y0151248D01*
X0062580Y0151511D01*
X0062368Y0151769D01*
X0062151Y0152021D01*
X0061927Y0152268D01*
X0061698Y0152510D01*
X0061462Y0152746D01*
X0061221Y0152976D01*
X0060975Y0153200D01*
X0060722Y0153418D01*
X0060465Y0153630D01*
X0060202Y0153835D01*
X0059935Y0154034D01*
X0059663Y0154226D01*
X0059386Y0154411D01*
X0059104Y0154590D01*
X0058819Y0154761D01*
X0058529Y0154926D01*
X0058235Y0155083D01*
X0057937Y0155233D01*
X0057636Y0155376D01*
X0057332Y0155512D01*
X0057024Y0155639D01*
X0056713Y0155760D01*
X0056400Y0155872D01*
X0056083Y0155977D01*
X0055764Y0156074D01*
X0055443Y0156163D01*
X0055120Y0156245D01*
X0054795Y0156318D01*
X0054468Y0156383D01*
X0054140Y0156441D01*
X0053810Y0156490D01*
X0053479Y0156531D01*
X0053148Y0156564D01*
X0052815Y0156589D01*
X0052483Y0156605D01*
X0052149Y0156614D01*
X0051816Y0156614D01*
X0051483Y0156606D01*
X0051150Y0156590D01*
X0050818Y0156566D01*
X0050486Y0156534D01*
X0050155Y0156493D01*
X0049826Y0156445D01*
X0049497Y0156388D01*
X0049170Y0156323D01*
X0048845Y0156251D01*
X0048845Y0156250D02*
X0048747Y0156252D01*
X0048649Y0156258D01*
X0048551Y0156267D01*
X0048454Y0156281D01*
X0048357Y0156298D01*
X0048261Y0156319D01*
X0048166Y0156344D01*
X0048072Y0156372D01*
X0047980Y0156405D01*
X0047888Y0156440D01*
X0047798Y0156480D01*
X0047710Y0156522D01*
X0047623Y0156569D01*
X0047539Y0156618D01*
X0047456Y0156671D01*
X0047376Y0156727D01*
X0047297Y0156787D01*
X0047221Y0156849D01*
X0047148Y0156914D01*
X0047077Y0156982D01*
X0047009Y0157053D01*
X0046944Y0157126D01*
X0046882Y0157202D01*
X0046822Y0157281D01*
X0046766Y0157361D01*
X0046713Y0157444D01*
X0046664Y0157528D01*
X0046617Y0157615D01*
X0046575Y0157703D01*
X0046535Y0157793D01*
X0046500Y0157885D01*
X0046467Y0157977D01*
X0046439Y0158071D01*
X0046414Y0158166D01*
X0046393Y0158262D01*
X0046376Y0158359D01*
X0046362Y0158456D01*
X0046353Y0158554D01*
X0046347Y0158652D01*
X0046345Y0158750D01*
X0046345Y0368750D01*
X0046348Y0368961D01*
X0046355Y0369173D01*
X0046368Y0369384D01*
X0046386Y0369594D01*
X0046409Y0369805D01*
X0046437Y0370014D01*
X0046470Y0370223D01*
X0046508Y0370431D01*
X0046551Y0370638D01*
X0046599Y0370844D01*
X0046652Y0371049D01*
X0046710Y0371252D01*
X0046773Y0371454D01*
X0046841Y0371654D01*
X0046914Y0371853D01*
X0046991Y0372050D01*
X0047073Y0372244D01*
X0047160Y0372437D01*
X0047251Y0372628D01*
X0047347Y0372816D01*
X0047448Y0373002D01*
X0047553Y0373186D01*
X0047662Y0373367D01*
X0047776Y0373545D01*
X0047894Y0373721D01*
X0048016Y0373893D01*
X0048142Y0374063D01*
X0048273Y0374229D01*
X0048407Y0374392D01*
X0048546Y0374552D01*
X0048688Y0374709D01*
X0048834Y0374862D01*
X0048983Y0375011D01*
X0049136Y0375157D01*
X0049293Y0375299D01*
X0049453Y0375438D01*
X0049616Y0375572D01*
X0049782Y0375703D01*
X0049952Y0375829D01*
X0050124Y0375951D01*
X0050300Y0376069D01*
X0050478Y0376183D01*
X0050659Y0376292D01*
X0050843Y0376397D01*
X0051029Y0376498D01*
X0051217Y0376594D01*
X0051408Y0376685D01*
X0051601Y0376772D01*
X0051795Y0376854D01*
X0051992Y0376931D01*
X0052191Y0377004D01*
X0052391Y0377072D01*
X0052593Y0377135D01*
X0052796Y0377193D01*
X0053001Y0377246D01*
X0053207Y0377294D01*
X0053414Y0377337D01*
X0053622Y0377375D01*
X0053831Y0377408D01*
X0054040Y0377436D01*
X0054251Y0377459D01*
X0054461Y0377477D01*
X0054672Y0377490D01*
X0054884Y0377497D01*
X0055095Y0377500D01*
X0068845Y0377500D01*
X0068885Y0377502D01*
X0068924Y0377507D01*
X0068962Y0377516D01*
X0069000Y0377529D01*
X0069036Y0377545D01*
X0069071Y0377564D01*
X0069104Y0377587D01*
X0069134Y0377612D01*
X0069162Y0377640D01*
X0069187Y0377670D01*
X0069210Y0377703D01*
X0069229Y0377738D01*
X0069245Y0377774D01*
X0069258Y0377812D01*
X0069267Y0377850D01*
X0069272Y0377889D01*
X0069274Y0377929D01*
D23*
X0302222Y0412500D02*
X0412316Y0412500D01*
X0412190Y0412028D01*
X0412190Y0410199D01*
X0412158Y0410000D01*
X0412190Y0409801D01*
X0412190Y0407972D01*
X0412898Y0405327D01*
X0412914Y0405230D01*
X0412936Y0405185D01*
X0413239Y0404054D01*
X0415268Y0400541D01*
X0418136Y0397673D01*
X0421649Y0395644D01*
X0422780Y0395341D01*
X0422825Y0395319D01*
X0422923Y0395303D01*
X0425567Y0394594D01*
X0427396Y0394594D01*
X0427595Y0394563D01*
X0427794Y0394594D01*
X0429623Y0394594D01*
X0430095Y0394721D01*
X0430095Y0278830D01*
X0429040Y0282655D01*
X0429012Y0283023D01*
X0428676Y0283977D01*
X0428407Y0284951D01*
X0428220Y0285270D01*
X0424525Y0295750D01*
X0424471Y0296116D01*
X0424069Y0297044D01*
X0423733Y0297997D01*
X0423524Y0298302D01*
X0419110Y0308492D01*
X0419031Y0308853D01*
X0418565Y0309750D01*
X0418163Y0310678D01*
X0417933Y0310968D01*
X0412822Y0320819D01*
X0412718Y0321173D01*
X0412191Y0322036D01*
X0411725Y0322934D01*
X0411476Y0323206D01*
X0405694Y0332672D01*
X0405565Y0333018D01*
X0404979Y0333842D01*
X0404452Y0334705D01*
X0404184Y0334960D01*
X0397759Y0343993D01*
X0397607Y0344330D01*
X0396965Y0345111D01*
X0396379Y0345935D01*
X0396094Y0346170D01*
X0389059Y0354728D01*
X0388883Y0355053D01*
X0388188Y0355787D01*
X0387546Y0356568D01*
X0387245Y0356783D01*
X0379636Y0364824D01*
X0379437Y0365136D01*
X0378693Y0365821D01*
X0377998Y0366555D01*
X0377683Y0366749D01*
X0369536Y0374235D01*
X0369316Y0374533D01*
X0368526Y0375163D01*
X0367781Y0375847D01*
X0367454Y0376018D01*
X0358809Y0382913D01*
X0358569Y0383195D01*
X0357737Y0383769D01*
X0356946Y0384399D01*
X0356608Y0384547D01*
X0347509Y0390819D01*
X0347250Y0391083D01*
X0346380Y0391597D01*
X0345547Y0392171D01*
X0345199Y0392295D01*
X0335690Y0397914D01*
X0335414Y0398159D01*
X0334510Y0398611D01*
X0333639Y0399126D01*
X0333283Y0399225D01*
X0323411Y0404163D01*
X0323118Y0404389D01*
X0322185Y0404777D01*
X0321280Y0405229D01*
X0320918Y0405303D01*
X0310733Y0409539D01*
X0310425Y0409743D01*
X0309467Y0410065D01*
X0308533Y0410453D01*
X0308167Y0410502D01*
X0302222Y0412500D01*
X0302295Y0412500D02*
X0302295Y0412475D01*
X0304007Y0411900D02*
X0412190Y0411900D01*
X0410295Y0412500D02*
X0410295Y0325139D01*
X0410075Y0325500D02*
X0430095Y0325500D01*
X0430095Y0323100D02*
X0411573Y0323100D01*
X0412695Y0321210D02*
X0412695Y0406085D01*
X0412423Y0407100D02*
X0316598Y0407100D01*
X0316695Y0407059D02*
X0316695Y0412500D01*
X0314295Y0412500D02*
X0314295Y0408057D01*
X0311895Y0409055D02*
X0311895Y0412500D01*
X0309495Y0412500D02*
X0309495Y0410056D01*
X0310826Y0409500D02*
X0412190Y0409500D01*
X0413066Y0404700D02*
X0322370Y0404700D01*
X0321495Y0405122D02*
X0321495Y0412500D01*
X0319095Y0412500D02*
X0319095Y0406062D01*
X0323895Y0403921D02*
X0323895Y0412500D01*
X0326295Y0412500D02*
X0326295Y0402721D01*
X0327136Y0402300D02*
X0414252Y0402300D01*
X0415095Y0400840D02*
X0415095Y0316438D01*
X0415374Y0315900D02*
X0430095Y0315900D01*
X0430095Y0313500D02*
X0416619Y0313500D01*
X0417495Y0311812D02*
X0417495Y0398313D01*
X0418435Y0397500D02*
X0336390Y0397500D01*
X0335895Y0397792D02*
X0335895Y0412500D01*
X0333495Y0412500D02*
X0333495Y0399166D01*
X0331933Y0399900D02*
X0415908Y0399900D01*
X0419895Y0396657D02*
X0419895Y0306679D01*
X0420059Y0306300D02*
X0430095Y0306300D01*
X0430095Y0303900D02*
X0421099Y0303900D01*
X0422139Y0301500D02*
X0430095Y0301500D01*
X0430095Y0299100D02*
X0423178Y0299100D01*
X0422295Y0301139D02*
X0422295Y0395471D01*
X0423680Y0395100D02*
X0340452Y0395100D01*
X0340695Y0394956D02*
X0340695Y0412500D01*
X0338295Y0412500D02*
X0338295Y0396374D01*
X0343095Y0393538D02*
X0343095Y0412500D01*
X0345495Y0412500D02*
X0345495Y0392190D01*
X0344513Y0392700D02*
X0430095Y0392700D01*
X0429495Y0394594D02*
X0429495Y0281005D01*
X0429800Y0279900D02*
X0430095Y0279900D01*
X0430095Y0282300D02*
X0429138Y0282300D01*
X0428476Y0284700D02*
X0430095Y0284700D01*
X0430095Y0287100D02*
X0427575Y0287100D01*
X0427095Y0288460D02*
X0427095Y0394594D01*
X0424695Y0394828D02*
X0424695Y0295268D01*
X0425036Y0294300D02*
X0430095Y0294300D01*
X0430095Y0296700D02*
X0424218Y0296700D01*
X0425882Y0291900D02*
X0430095Y0291900D01*
X0430095Y0289500D02*
X0426728Y0289500D01*
X0430095Y0308700D02*
X0419064Y0308700D01*
X0417865Y0311100D02*
X0430095Y0311100D01*
X0430095Y0318300D02*
X0414129Y0318300D01*
X0412884Y0320700D02*
X0430095Y0320700D01*
X0430095Y0327900D02*
X0408609Y0327900D01*
X0407895Y0329068D02*
X0407895Y0412500D01*
X0405495Y0412500D02*
X0405495Y0333116D01*
X0405683Y0332700D02*
X0430095Y0332700D01*
X0430095Y0335100D02*
X0404084Y0335100D01*
X0403095Y0336491D02*
X0403095Y0412500D01*
X0400695Y0412500D02*
X0400695Y0339865D01*
X0400670Y0339900D02*
X0430095Y0339900D01*
X0430095Y0337500D02*
X0402377Y0337500D01*
X0398964Y0342300D02*
X0430095Y0342300D01*
X0430095Y0344700D02*
X0397302Y0344700D01*
X0398295Y0343240D02*
X0398295Y0412500D01*
X0395895Y0412500D02*
X0395895Y0346412D01*
X0395329Y0347100D02*
X0430095Y0347100D01*
X0430095Y0349500D02*
X0393356Y0349500D01*
X0393495Y0349331D02*
X0393495Y0372036D01*
X0393209Y0371750D02*
X0395845Y0374386D01*
X0395845Y0375750D01*
X0391845Y0375750D01*
X0391845Y0371750D01*
X0393209Y0371750D01*
X0391845Y0373500D02*
X0390845Y0373500D01*
X0390845Y0371750D02*
X0390845Y0375750D01*
X0386845Y0375750D01*
X0386845Y0374386D01*
X0389481Y0371750D01*
X0390845Y0371750D01*
X0388695Y0372536D02*
X0388695Y0355251D01*
X0389410Y0354300D02*
X0430095Y0354300D01*
X0430095Y0351900D02*
X0391383Y0351900D01*
X0391095Y0352251D02*
X0391095Y0375750D01*
X0390845Y0375750D02*
X0391845Y0375750D01*
X0391845Y0376750D01*
X0390845Y0376750D01*
X0390845Y0375750D01*
X0390845Y0375900D02*
X0367680Y0375900D01*
X0367095Y0376304D02*
X0367095Y0412500D01*
X0364695Y0412500D02*
X0364695Y0378218D01*
X0364593Y0378300D02*
X0387031Y0378300D01*
X0386845Y0378114D02*
X0386845Y0376750D01*
X0390845Y0376750D01*
X0390845Y0380750D01*
X0389481Y0380750D01*
X0386845Y0378114D01*
X0388695Y0376750D02*
X0388695Y0375750D01*
X0387731Y0373500D02*
X0370336Y0373500D01*
X0369495Y0374290D02*
X0369495Y0412500D01*
X0371895Y0412500D02*
X0371895Y0372067D01*
X0372947Y0371100D02*
X0430095Y0371100D01*
X0430095Y0368700D02*
X0375559Y0368700D01*
X0376695Y0367656D02*
X0376695Y0412500D01*
X0374295Y0412500D02*
X0374295Y0369862D01*
X0378239Y0366300D02*
X0430095Y0366300D01*
X0430095Y0363900D02*
X0380510Y0363900D01*
X0381495Y0362859D02*
X0381495Y0412500D01*
X0379095Y0412500D02*
X0379095Y0365451D01*
X0382782Y0361500D02*
X0430095Y0361500D01*
X0430095Y0359100D02*
X0385053Y0359100D01*
X0383895Y0360323D02*
X0383895Y0412500D01*
X0386295Y0412500D02*
X0386295Y0357787D01*
X0387362Y0356700D02*
X0430095Y0356700D01*
X0430095Y0373500D02*
X0394959Y0373500D01*
X0393495Y0375750D02*
X0393495Y0376750D01*
X0391845Y0376750D02*
X0395845Y0376750D01*
X0395845Y0378114D01*
X0393209Y0380750D01*
X0391845Y0380750D01*
X0391845Y0376750D01*
X0391095Y0376750D02*
X0391095Y0412500D01*
X0388695Y0412500D02*
X0388695Y0379964D01*
X0389431Y0380700D02*
X0361584Y0380700D01*
X0362295Y0380133D02*
X0362295Y0412500D01*
X0359895Y0412500D02*
X0359895Y0382047D01*
X0358650Y0383100D02*
X0430095Y0383100D01*
X0430095Y0385500D02*
X0355225Y0385500D01*
X0355095Y0385590D02*
X0355095Y0412500D01*
X0352695Y0412500D02*
X0352695Y0387244D01*
X0351743Y0387900D02*
X0430095Y0387900D01*
X0430095Y0390300D02*
X0348262Y0390300D01*
X0347895Y0390553D02*
X0347895Y0412500D01*
X0350295Y0412500D02*
X0350295Y0388898D01*
X0357495Y0383961D02*
X0357495Y0412500D01*
X0331095Y0412500D02*
X0331095Y0400319D01*
X0328695Y0401520D02*
X0328695Y0412500D01*
X0307095Y0412500D02*
X0307095Y0410862D01*
X0304695Y0411669D02*
X0304695Y0412500D01*
X0393495Y0412500D02*
X0393495Y0380464D01*
X0393259Y0380700D02*
X0430095Y0380700D01*
X0430095Y0378300D02*
X0395659Y0378300D01*
X0391845Y0378300D02*
X0390845Y0378300D01*
X0390845Y0380700D02*
X0391845Y0380700D01*
X0391845Y0375900D02*
X0430095Y0375900D01*
X0430095Y0330300D02*
X0407143Y0330300D01*
X0430095Y0170062D02*
X0430095Y0050279D01*
X0429623Y0050405D01*
X0427794Y0050405D01*
X0427595Y0050437D01*
X0427396Y0050405D01*
X0425567Y0050405D01*
X0422923Y0049697D01*
X0422825Y0049681D01*
X0422780Y0049659D01*
X0421649Y0049356D01*
X0418136Y0047327D01*
X0415268Y0044459D01*
X0413239Y0040946D01*
X0412936Y0039815D01*
X0412914Y0039770D01*
X0412898Y0039673D01*
X0412190Y0037028D01*
X0412190Y0035199D01*
X0412158Y0035000D01*
X0412190Y0034801D01*
X0412190Y0032972D01*
X0412316Y0032500D01*
X0357874Y0032500D01*
X0358001Y0032972D01*
X0358001Y0034801D01*
X0358032Y0035000D01*
X0358001Y0035199D01*
X0358001Y0037028D01*
X0357292Y0039673D01*
X0357277Y0039770D01*
X0357254Y0039815D01*
X0356951Y0040946D01*
X0354923Y0044459D01*
X0352054Y0047327D01*
X0348541Y0049356D01*
X0347410Y0049659D01*
X0347365Y0049681D01*
X0347268Y0049697D01*
X0344623Y0050405D01*
X0342794Y0050405D01*
X0342595Y0050437D01*
X0342396Y0050405D01*
X0340567Y0050405D01*
X0337923Y0049697D01*
X0337825Y0049681D01*
X0337780Y0049659D01*
X0336649Y0049356D01*
X0333136Y0047327D01*
X0330268Y0044459D01*
X0328239Y0040946D01*
X0327936Y0039815D01*
X0327914Y0039770D01*
X0327898Y0039673D01*
X0327190Y0037028D01*
X0327190Y0035199D01*
X0327158Y0035000D01*
X0327190Y0034801D01*
X0327190Y0032972D01*
X0327316Y0032500D01*
X0292558Y0032500D01*
X0302927Y0035753D01*
X0303295Y0035794D01*
X0304236Y0036163D01*
X0305201Y0036466D01*
X0305513Y0036664D01*
X0315995Y0040775D01*
X0316359Y0040841D01*
X0317272Y0041275D01*
X0318213Y0041644D01*
X0318510Y0041864D01*
X0328674Y0046693D01*
X0329032Y0046785D01*
X0329913Y0047282D01*
X0330826Y0047716D01*
X0331107Y0047956D01*
X0340904Y0053479D01*
X0341255Y0053596D01*
X0342098Y0054153D01*
X0342979Y0054649D01*
X0343243Y0054908D01*
X0352624Y0061097D01*
X0352966Y0061238D01*
X0353769Y0061853D01*
X0354613Y0062409D01*
X0354858Y0062686D01*
X0363780Y0069511D01*
X0364111Y0069675D01*
X0364869Y0070344D01*
X0365672Y0070959D01*
X0365897Y0071251D01*
X0374316Y0078678D01*
X0374635Y0078865D01*
X0375345Y0079585D01*
X0376103Y0080254D01*
X0376307Y0080562D01*
X0384183Y0088552D01*
X0384488Y0088761D01*
X0385145Y0089529D01*
X0385855Y0090249D01*
X0386037Y0090571D01*
X0393332Y0099086D01*
X0393621Y0099316D01*
X0394224Y0100127D01*
X0394882Y0100895D01*
X0395041Y0101229D01*
X0401719Y0110227D01*
X0401992Y0110476D01*
X0402537Y0111328D01*
X0403139Y0112140D01*
X0403275Y0112484D01*
X0409306Y0121920D01*
X0409561Y0122188D01*
X0410045Y0123076D01*
X0410589Y0123928D01*
X0410701Y0124280D01*
X0416056Y0134108D01*
X0416292Y0134393D01*
X0416712Y0135313D01*
X0417196Y0136200D01*
X0417283Y0136560D01*
X0421935Y0146731D01*
X0422150Y0147032D01*
X0422506Y0147979D01*
X0422927Y0148898D01*
X0422988Y0149263D01*
X0426918Y0159728D01*
X0427112Y0160042D01*
X0427400Y0161011D01*
X0427756Y0161958D01*
X0427792Y0162326D01*
X0430095Y0170062D01*
X0430095Y0169500D02*
X0429928Y0169500D01*
X0429495Y0168047D02*
X0429495Y0050405D01*
X0430095Y0051900D02*
X0338103Y0051900D01*
X0338295Y0052008D02*
X0338295Y0049797D01*
X0337188Y0049500D02*
X0333847Y0049500D01*
X0333495Y0049302D02*
X0333495Y0047535D01*
X0332908Y0047100D02*
X0329590Y0047100D01*
X0328695Y0046699D02*
X0328695Y0041736D01*
X0329021Y0042300D02*
X0319428Y0042300D01*
X0319095Y0042142D02*
X0319095Y0032500D01*
X0316695Y0032500D02*
X0316695Y0041001D01*
X0314295Y0040108D02*
X0314295Y0032500D01*
X0311895Y0032500D02*
X0311895Y0039167D01*
X0313765Y0039900D02*
X0327959Y0039900D01*
X0327316Y0037500D02*
X0307645Y0037500D01*
X0307095Y0037284D02*
X0307095Y0032500D01*
X0304695Y0032500D02*
X0304695Y0036307D01*
X0302295Y0035554D02*
X0302295Y0032500D01*
X0299895Y0032500D02*
X0299895Y0034801D01*
X0300847Y0035100D02*
X0327174Y0035100D01*
X0327262Y0032700D02*
X0293196Y0032700D01*
X0292695Y0032543D02*
X0292695Y0032500D01*
X0295095Y0032500D02*
X0295095Y0033296D01*
X0297495Y0034049D02*
X0297495Y0032500D01*
X0309495Y0032500D02*
X0309495Y0038226D01*
X0321495Y0043282D02*
X0321495Y0032500D01*
X0323895Y0032500D02*
X0323895Y0044423D01*
X0324479Y0044700D02*
X0330508Y0044700D01*
X0331095Y0045287D02*
X0331095Y0047945D01*
X0335895Y0048920D02*
X0335895Y0050655D01*
X0340695Y0050405D02*
X0340695Y0053361D01*
X0342360Y0054300D02*
X0430095Y0054300D01*
X0430095Y0056700D02*
X0345959Y0056700D01*
X0345495Y0056394D02*
X0345495Y0050172D01*
X0343095Y0050405D02*
X0343095Y0054763D01*
X0347895Y0057977D02*
X0347895Y0049529D01*
X0348003Y0049500D02*
X0422188Y0049500D01*
X0422295Y0049529D02*
X0422295Y0147418D01*
X0422476Y0147900D02*
X0430095Y0147900D01*
X0430095Y0150300D02*
X0423378Y0150300D01*
X0424279Y0152700D02*
X0430095Y0152700D01*
X0430095Y0155100D02*
X0425180Y0155100D01*
X0424695Y0153809D02*
X0424695Y0050172D01*
X0427095Y0050405D02*
X0427095Y0160016D01*
X0427024Y0159900D02*
X0430095Y0159900D01*
X0430095Y0157500D02*
X0426081Y0157500D01*
X0427789Y0162300D02*
X0430095Y0162300D01*
X0430095Y0164700D02*
X0428498Y0164700D01*
X0429213Y0167100D02*
X0430095Y0167100D01*
X0430095Y0145500D02*
X0421372Y0145500D01*
X0420274Y0143100D02*
X0430095Y0143100D01*
X0430095Y0140700D02*
X0419176Y0140700D01*
X0419895Y0142271D02*
X0419895Y0048343D01*
X0417908Y0047100D02*
X0352282Y0047100D01*
X0352695Y0046687D02*
X0352695Y0061127D01*
X0353308Y0061500D02*
X0430095Y0061500D01*
X0430095Y0063900D02*
X0356445Y0063900D01*
X0357495Y0064703D02*
X0357495Y0038915D01*
X0357231Y0039900D02*
X0412959Y0039900D01*
X0412695Y0038915D02*
X0412695Y0127940D01*
X0413109Y0128700D02*
X0430095Y0128700D01*
X0430095Y0131100D02*
X0414417Y0131100D01*
X0415095Y0132345D02*
X0415095Y0044160D01*
X0415508Y0044700D02*
X0354682Y0044700D01*
X0355095Y0044160D02*
X0355095Y0062867D01*
X0359583Y0066300D02*
X0430095Y0066300D01*
X0430095Y0068700D02*
X0362720Y0068700D01*
X0362295Y0068375D02*
X0362295Y0032500D01*
X0359895Y0032500D02*
X0359895Y0066539D01*
X0364695Y0070191D02*
X0364695Y0032500D01*
X0367095Y0032500D02*
X0367095Y0072308D01*
X0365781Y0071100D02*
X0430095Y0071100D01*
X0430095Y0073500D02*
X0368446Y0073500D01*
X0369495Y0074425D02*
X0369495Y0032500D01*
X0371895Y0032500D02*
X0371895Y0076542D01*
X0371167Y0075900D02*
X0430095Y0075900D01*
X0430095Y0078300D02*
X0373888Y0078300D01*
X0374295Y0078659D02*
X0374295Y0032500D01*
X0376695Y0032500D02*
X0376695Y0080955D01*
X0376444Y0080700D02*
X0430095Y0080700D01*
X0430095Y0083100D02*
X0378809Y0083100D01*
X0379095Y0083390D02*
X0379095Y0032500D01*
X0381495Y0032500D02*
X0381495Y0085825D01*
X0381174Y0085500D02*
X0394481Y0085500D01*
X0393495Y0086486D02*
X0393495Y0032500D01*
X0391095Y0032500D02*
X0391095Y0096475D01*
X0391973Y0097500D02*
X0430095Y0097500D01*
X0430095Y0095100D02*
X0389917Y0095100D01*
X0388695Y0093673D02*
X0388695Y0032500D01*
X0386295Y0032500D02*
X0386295Y0090871D01*
X0385884Y0090300D02*
X0393095Y0090300D01*
X0393095Y0090614D02*
X0393095Y0089250D01*
X0397095Y0089250D01*
X0397095Y0088250D01*
X0393095Y0088250D01*
X0393095Y0086886D01*
X0395731Y0084250D01*
X0397095Y0084250D01*
X0397095Y0088250D01*
X0398095Y0088250D01*
X0398095Y0084250D01*
X0399459Y0084250D01*
X0402095Y0086886D01*
X0402095Y0088250D01*
X0398095Y0088250D01*
X0398095Y0089250D01*
X0397095Y0089250D01*
X0397095Y0093250D01*
X0395731Y0093250D01*
X0393095Y0090614D01*
X0393495Y0091014D02*
X0393495Y0099216D01*
X0394055Y0099900D02*
X0430095Y0099900D01*
X0430095Y0102300D02*
X0395836Y0102300D01*
X0395895Y0102379D02*
X0395895Y0093250D01*
X0395181Y0092700D02*
X0387862Y0092700D01*
X0383895Y0088261D02*
X0383895Y0032500D01*
X0395895Y0032500D02*
X0395895Y0084250D01*
X0397095Y0085500D02*
X0398095Y0085500D01*
X0398295Y0084250D02*
X0398295Y0032500D01*
X0400695Y0032500D02*
X0400695Y0085486D01*
X0400709Y0085500D02*
X0430095Y0085500D01*
X0430095Y0087900D02*
X0402095Y0087900D01*
X0402095Y0089250D02*
X0402095Y0090614D01*
X0399459Y0093250D01*
X0398095Y0093250D01*
X0398095Y0089250D01*
X0402095Y0089250D01*
X0402095Y0090300D02*
X0430095Y0090300D01*
X0430095Y0092700D02*
X0400009Y0092700D01*
X0400695Y0092014D02*
X0400695Y0108847D01*
X0401180Y0109500D02*
X0430095Y0109500D01*
X0430095Y0111900D02*
X0402961Y0111900D01*
X0403095Y0112080D02*
X0403095Y0032500D01*
X0405495Y0032500D02*
X0405495Y0115957D01*
X0405970Y0116700D02*
X0430095Y0116700D01*
X0430095Y0114300D02*
X0404436Y0114300D01*
X0407504Y0119100D02*
X0430095Y0119100D01*
X0430095Y0121500D02*
X0409038Y0121500D01*
X0407895Y0119712D02*
X0407895Y0032500D01*
X0410295Y0032500D02*
X0410295Y0123468D01*
X0410571Y0123900D02*
X0430095Y0123900D01*
X0430095Y0126300D02*
X0411801Y0126300D01*
X0415724Y0133500D02*
X0430095Y0133500D01*
X0430095Y0135900D02*
X0417032Y0135900D01*
X0417495Y0137025D02*
X0417495Y0046687D01*
X0414021Y0042300D02*
X0356169Y0042300D01*
X0357874Y0037500D02*
X0412316Y0037500D01*
X0412174Y0035100D02*
X0358016Y0035100D01*
X0357928Y0032700D02*
X0412262Y0032700D01*
X0430095Y0059100D02*
X0349597Y0059100D01*
X0350295Y0059561D02*
X0350295Y0048343D01*
X0326295Y0045563D02*
X0326295Y0032500D01*
X0383540Y0087900D02*
X0393095Y0087900D01*
X0393495Y0088250D02*
X0393495Y0089250D01*
X0395895Y0089250D02*
X0395895Y0088250D01*
X0397095Y0087900D02*
X0398095Y0087900D01*
X0398295Y0088250D02*
X0398295Y0089250D01*
X0398095Y0090300D02*
X0397095Y0090300D01*
X0397095Y0092700D02*
X0398095Y0092700D01*
X0398295Y0093250D02*
X0398295Y0105613D01*
X0397617Y0104700D02*
X0430095Y0104700D01*
X0430095Y0107100D02*
X0399399Y0107100D01*
X0400695Y0089250D02*
X0400695Y0088250D01*
X0418079Y0138300D02*
X0430095Y0138300D01*
X0141229Y0039100D02*
X0140395Y0039100D01*
X0140395Y0035300D01*
X0139795Y0035300D01*
X0139795Y0034700D01*
X0135995Y0034700D01*
X0135995Y0033302D01*
X0136797Y0032500D01*
X0114069Y0032500D01*
X0114142Y0032709D01*
X0114377Y0033738D01*
X0114495Y0034787D01*
X0114495Y0034815D01*
X0105595Y0034815D01*
X0105595Y0035815D01*
X0114495Y0035815D01*
X0114495Y0035843D01*
X0114377Y0036892D01*
X0114142Y0037921D01*
X0113793Y0038918D01*
X0113335Y0039869D01*
X0112773Y0040763D01*
X0112115Y0041588D01*
X0111369Y0042335D01*
X0110543Y0042993D01*
X0109649Y0043555D01*
X0108770Y0043978D01*
X0111039Y0044586D01*
X0114219Y0046422D01*
X0114317Y0045549D01*
X0114552Y0044520D01*
X0114901Y0043523D01*
X0115359Y0042572D01*
X0115921Y0041678D01*
X0116579Y0040852D01*
X0117326Y0040106D01*
X0118151Y0039448D01*
X0119045Y0038886D01*
X0119996Y0038428D01*
X0120993Y0038079D01*
X0122022Y0037844D01*
X0123071Y0037726D01*
X0123099Y0037726D01*
X0123099Y0046626D01*
X0124099Y0046626D01*
X0124099Y0037726D01*
X0124127Y0037726D01*
X0125176Y0037844D01*
X0126205Y0038079D01*
X0127202Y0038428D01*
X0128153Y0038886D01*
X0129047Y0039448D01*
X0129873Y0040106D01*
X0130619Y0040852D01*
X0131277Y0041678D01*
X0131839Y0042572D01*
X0132297Y0043523D01*
X0132646Y0044520D01*
X0132797Y0045184D01*
X0136512Y0042821D01*
X0141229Y0039100D01*
X0140215Y0039900D02*
X0129614Y0039900D01*
X0129495Y0039805D02*
X0129495Y0032500D01*
X0127095Y0032500D02*
X0127095Y0038390D01*
X0124695Y0037790D02*
X0124695Y0032500D01*
X0122295Y0032500D02*
X0122295Y0037813D01*
X0123099Y0039900D02*
X0124099Y0039900D01*
X0124099Y0042300D02*
X0123099Y0042300D01*
X0123099Y0044700D02*
X0124099Y0044700D01*
X0124099Y0046626D02*
X0130530Y0046626D01*
X0129292Y0047413D01*
X0128868Y0047626D01*
X0124099Y0047626D01*
X0124099Y0046626D01*
X0124099Y0047100D02*
X0129784Y0047100D01*
X0129495Y0047284D02*
X0129495Y0046626D01*
X0127095Y0046626D02*
X0127095Y0047626D01*
X0124695Y0047626D02*
X0124695Y0046626D01*
X0131668Y0042300D02*
X0137173Y0042300D01*
X0136695Y0042677D02*
X0136695Y0037398D01*
X0136797Y0037500D02*
X0114238Y0037500D01*
X0112695Y0035815D02*
X0112695Y0034815D01*
X0110295Y0034815D02*
X0110295Y0035815D01*
X0107895Y0035815D02*
X0107895Y0034815D01*
X0105595Y0035100D02*
X0139795Y0035100D01*
X0139795Y0035300D02*
X0135995Y0035300D01*
X0135995Y0036698D01*
X0138397Y0039100D01*
X0139795Y0039100D01*
X0139795Y0035300D01*
X0139095Y0035300D02*
X0139095Y0034700D01*
X0136695Y0034700D02*
X0136695Y0035300D01*
X0136597Y0032700D02*
X0114139Y0032700D01*
X0115095Y0032500D02*
X0115095Y0043120D01*
X0115530Y0042300D02*
X0111404Y0042300D01*
X0110295Y0043149D02*
X0110295Y0044387D01*
X0111236Y0044700D02*
X0114511Y0044700D01*
X0112695Y0045542D02*
X0112695Y0040861D01*
X0113316Y0039900D02*
X0117584Y0039900D01*
X0117495Y0039971D02*
X0117495Y0032500D01*
X0119895Y0032500D02*
X0119895Y0038476D01*
X0131895Y0042688D02*
X0131895Y0032500D01*
X0134295Y0032500D02*
X0134295Y0044231D01*
X0133558Y0044700D02*
X0132687Y0044700D01*
X0139095Y0040784D02*
X0139095Y0039100D01*
X0139795Y0037500D02*
X0140395Y0037500D01*
X0136695Y0032602D02*
X0136695Y0032500D01*
X0104595Y0034815D02*
X0095695Y0034815D01*
X0095695Y0034787D01*
X0095813Y0033738D01*
X0096048Y0032709D01*
X0096121Y0032500D01*
X0088372Y0032500D01*
X0089095Y0036136D01*
X0089095Y0040864D01*
X0088173Y0045501D01*
X0086364Y0049868D01*
X0083737Y0053799D01*
X0080394Y0057142D01*
X0076463Y0059769D01*
X0072096Y0061578D01*
X0067459Y0062500D01*
X0062731Y0062500D01*
X0058095Y0061578D01*
X0053727Y0059769D01*
X0050095Y0057342D01*
X0050095Y0120452D01*
X0050897Y0119650D01*
X0052295Y0119650D01*
X0052295Y0123450D01*
X0052895Y0123450D01*
X0052895Y0119650D01*
X0054293Y0119650D01*
X0056695Y0122052D01*
X0056695Y0123450D01*
X0052895Y0123450D01*
X0052895Y0123650D01*
X0056779Y0123650D01*
X0059906Y0126777D01*
X0061564Y0122567D01*
X0060946Y0120869D01*
X0060926Y0120864D01*
X0058464Y0119442D01*
X0056453Y0117431D01*
X0055031Y0114969D01*
X0054595Y0113341D01*
X0054595Y0115581D01*
X0053971Y0115482D01*
X0053253Y0115248D01*
X0052579Y0114905D01*
X0051968Y0114461D01*
X0051434Y0113927D01*
X0050990Y0113316D01*
X0050647Y0112643D01*
X0050413Y0111924D01*
X0050295Y0111178D01*
X0050295Y0120252D01*
X0050095Y0119100D02*
X0058122Y0119100D01*
X0057495Y0118473D02*
X0057495Y0124366D01*
X0057029Y0123900D02*
X0061039Y0123900D01*
X0061176Y0121500D02*
X0056143Y0121500D01*
X0055095Y0120452D02*
X0055095Y0115080D01*
X0054852Y0114300D02*
X0054595Y0114300D01*
X0052695Y0114964D02*
X0052695Y0123450D01*
X0052895Y0121500D02*
X0052295Y0121500D01*
X0055095Y0123450D02*
X0055095Y0123650D01*
X0059429Y0126300D02*
X0060094Y0126300D01*
X0059895Y0126766D02*
X0059895Y0120269D01*
X0056031Y0116700D02*
X0050095Y0116700D01*
X0050095Y0114300D02*
X0051807Y0114300D01*
X0050410Y0111900D02*
X0050095Y0111900D01*
X0050295Y0111178D02*
X0050295Y0108000D01*
X0054295Y0108000D01*
X0054295Y0107000D01*
X0050295Y0107000D01*
X0050295Y0108000D01*
X0050095Y0107100D02*
X0054295Y0107100D01*
X0052695Y0107000D02*
X0052695Y0108000D01*
X0050295Y0107000D02*
X0050295Y0103822D01*
X0050295Y0057475D01*
X0050095Y0059100D02*
X0052726Y0059100D01*
X0052695Y0059079D02*
X0052695Y0100036D01*
X0052579Y0100095D02*
X0053253Y0099752D01*
X0053971Y0099518D01*
X0054595Y0099419D01*
X0054595Y0101659D01*
X0055031Y0100031D01*
X0055196Y0099746D01*
X0056093Y0096397D01*
X0058601Y0092053D01*
X0062148Y0088506D01*
X0066492Y0085998D01*
X0066492Y0085998D01*
X0071337Y0084700D01*
X0088287Y0084700D01*
X0088658Y0084821D01*
X0088658Y0083321D01*
X0089800Y0080565D01*
X0091910Y0078455D01*
X0094666Y0077313D01*
X0098279Y0077313D01*
X0098279Y0076496D01*
X0098079Y0075749D01*
X0098079Y0072669D01*
X0095639Y0071260D01*
X0092772Y0068393D01*
X0090745Y0064881D01*
X0089695Y0060964D01*
X0089695Y0056910D01*
X0090745Y0052993D01*
X0092772Y0049481D01*
X0095639Y0046614D01*
X0099151Y0044586D01*
X0101420Y0043978D01*
X0100541Y0043555D01*
X0099647Y0042993D01*
X0098822Y0042335D01*
X0098075Y0041588D01*
X0097417Y0040763D01*
X0096855Y0039869D01*
X0096397Y0038918D01*
X0096048Y0037921D01*
X0095813Y0036892D01*
X0095695Y0035843D01*
X0095695Y0035815D01*
X0104595Y0035815D01*
X0104595Y0034815D01*
X0104595Y0035100D02*
X0088889Y0035100D01*
X0088695Y0034125D02*
X0088695Y0032500D01*
X0088412Y0032700D02*
X0096051Y0032700D01*
X0095895Y0032500D02*
X0095895Y0033380D01*
X0095895Y0034815D02*
X0095895Y0035815D01*
X0095895Y0037250D02*
X0095895Y0046466D01*
X0095153Y0047100D02*
X0087510Y0047100D01*
X0088332Y0044700D02*
X0098954Y0044700D01*
X0098295Y0045081D02*
X0098295Y0041809D01*
X0098787Y0042300D02*
X0088809Y0042300D01*
X0088695Y0042875D02*
X0088695Y0083232D01*
X0088750Y0083100D02*
X0050095Y0083100D01*
X0050095Y0080700D02*
X0089744Y0080700D01*
X0091095Y0079269D02*
X0091095Y0065488D01*
X0091564Y0066300D02*
X0050095Y0066300D01*
X0050095Y0068700D02*
X0093079Y0068700D01*
X0093495Y0069116D02*
X0093495Y0077798D01*
X0092283Y0078300D02*
X0050095Y0078300D01*
X0050095Y0075900D02*
X0098120Y0075900D01*
X0098079Y0073500D02*
X0050095Y0073500D01*
X0050095Y0071100D02*
X0095479Y0071100D01*
X0095895Y0071408D02*
X0095895Y0077313D01*
X0086295Y0084700D02*
X0086295Y0049971D01*
X0086516Y0049500D02*
X0092761Y0049500D01*
X0093495Y0048758D02*
X0093495Y0032500D01*
X0091095Y0032500D02*
X0091095Y0052386D01*
X0091376Y0051900D02*
X0085006Y0051900D01*
X0083895Y0053563D02*
X0083895Y0084700D01*
X0081495Y0084700D02*
X0081495Y0056041D01*
X0080836Y0056700D02*
X0089751Y0056700D01*
X0089695Y0059100D02*
X0077464Y0059100D01*
X0076695Y0059614D02*
X0076695Y0084700D01*
X0074295Y0084700D02*
X0074295Y0060667D01*
X0072283Y0061500D02*
X0089839Y0061500D01*
X0090482Y0063900D02*
X0050095Y0063900D01*
X0050095Y0061500D02*
X0057907Y0061500D01*
X0057495Y0061329D02*
X0057495Y0093969D01*
X0056842Y0095100D02*
X0050095Y0095100D01*
X0050095Y0097500D02*
X0055798Y0097500D01*
X0056093Y0096397D02*
X0056093Y0096397D01*
X0055107Y0099900D02*
X0054595Y0099900D01*
X0055095Y0099921D02*
X0055095Y0060335D01*
X0059895Y0061936D02*
X0059895Y0090759D01*
X0060354Y0090300D02*
X0050095Y0090300D01*
X0050095Y0092700D02*
X0058228Y0092700D01*
X0058601Y0092053D02*
X0058601Y0092053D01*
X0062148Y0088506D02*
X0062148Y0088506D01*
X0062295Y0088421D02*
X0062295Y0062413D01*
X0064695Y0062500D02*
X0064695Y0087036D01*
X0063198Y0087900D02*
X0050095Y0087900D01*
X0050095Y0085500D02*
X0068352Y0085500D01*
X0069495Y0085194D02*
X0069495Y0062095D01*
X0067095Y0062500D02*
X0067095Y0085837D01*
X0071895Y0084700D02*
X0071895Y0061618D01*
X0079095Y0058010D02*
X0079095Y0084700D01*
X0052961Y0099900D02*
X0050095Y0099900D01*
X0051434Y0101073D02*
X0051968Y0100539D01*
X0052579Y0100095D01*
X0051434Y0101073D02*
X0050990Y0101684D01*
X0050647Y0102357D01*
X0050413Y0103076D01*
X0050295Y0103822D01*
X0050295Y0104700D02*
X0050095Y0104700D01*
X0050095Y0102300D02*
X0050676Y0102300D01*
X0050295Y0109500D02*
X0050095Y0109500D01*
X0083236Y0054300D02*
X0090394Y0054300D01*
X0100695Y0044173D02*
X0100695Y0043629D01*
X0096875Y0039900D02*
X0089095Y0039900D01*
X0089095Y0037500D02*
X0095952Y0037500D01*
X0098295Y0035815D02*
X0098295Y0034815D01*
X0100695Y0034815D02*
X0100695Y0035815D01*
X0103095Y0035815D02*
X0103095Y0034815D01*
D24*
X0103530Y0035315D02*
X0105095Y0035315D01*
X0111788Y0035315D01*
X0112073Y0035318D01*
X0112359Y0035329D01*
X0112644Y0035346D01*
X0112928Y0035370D01*
X0113212Y0035401D01*
X0113495Y0035439D01*
X0113776Y0035484D01*
X0114057Y0035535D01*
X0114337Y0035593D01*
X0114615Y0035658D01*
X0114891Y0035730D01*
X0115165Y0035808D01*
X0115438Y0035893D01*
X0115708Y0035985D01*
X0115976Y0036083D01*
X0116242Y0036187D01*
X0116505Y0036298D01*
X0116765Y0036415D01*
X0117023Y0036538D01*
X0117277Y0036668D01*
X0117528Y0036804D01*
X0117776Y0036945D01*
X0118020Y0037093D01*
X0118261Y0037246D01*
X0118497Y0037406D01*
X0118730Y0037571D01*
X0118959Y0037741D01*
X0119184Y0037917D01*
X0119404Y0038099D01*
X0119620Y0038285D01*
X0119831Y0038477D01*
X0120038Y0038674D01*
X0120240Y0038876D01*
X0120437Y0039083D01*
X0120629Y0039294D01*
X0120815Y0039510D01*
X0120997Y0039730D01*
X0121173Y0039955D01*
X0121343Y0040184D01*
X0121508Y0040417D01*
X0121668Y0040653D01*
X0121821Y0040894D01*
X0121969Y0041138D01*
X0122110Y0041386D01*
X0122246Y0041637D01*
X0122376Y0041891D01*
X0122499Y0042149D01*
X0122616Y0042409D01*
X0122727Y0042672D01*
X0122831Y0042938D01*
X0122929Y0043206D01*
X0123021Y0043476D01*
X0123106Y0043749D01*
X0123184Y0044023D01*
X0123256Y0044299D01*
X0123321Y0044577D01*
X0123379Y0044857D01*
X0123430Y0045138D01*
X0123475Y0045419D01*
X0123513Y0045702D01*
X0123544Y0045986D01*
X0123568Y0046270D01*
X0123585Y0046555D01*
X0123596Y0046841D01*
X0123599Y0047126D01*
X0127969Y0047126D01*
X0128262Y0047122D01*
X0128555Y0047112D01*
X0128847Y0047094D01*
X0129139Y0047069D01*
X0129431Y0047038D01*
X0129721Y0046999D01*
X0130010Y0046953D01*
X0130299Y0046900D01*
X0130586Y0046840D01*
X0130871Y0046774D01*
X0131155Y0046700D01*
X0131436Y0046620D01*
X0131716Y0046533D01*
X0131994Y0046439D01*
X0132269Y0046338D01*
X0132542Y0046231D01*
X0132812Y0046117D01*
X0133079Y0045997D01*
X0133343Y0045870D01*
X0133604Y0045737D01*
X0133862Y0045598D01*
X0134116Y0045452D01*
X0134367Y0045301D01*
X0134614Y0045143D01*
X0134857Y0044980D01*
X0135096Y0044810D01*
X0135331Y0044635D01*
X0135562Y0044454D01*
X0135788Y0044268D01*
X0136010Y0044076D01*
X0136227Y0043879D01*
X0136439Y0043677D01*
X0136646Y0043470D01*
X0136848Y0043258D01*
X0137045Y0043041D01*
X0137237Y0042819D01*
X0137423Y0042593D01*
X0137604Y0042362D01*
X0137779Y0042127D01*
X0137949Y0041888D01*
X0138112Y0041645D01*
X0138270Y0041398D01*
X0138421Y0041147D01*
X0138567Y0040893D01*
X0138706Y0040635D01*
X0138839Y0040374D01*
X0138966Y0040110D01*
X0139086Y0039843D01*
X0139200Y0039573D01*
X0139307Y0039300D01*
X0139408Y0039025D01*
X0139502Y0038747D01*
X0139589Y0038467D01*
X0139669Y0038186D01*
X0139743Y0037902D01*
X0139809Y0037617D01*
X0139869Y0037330D01*
X0139922Y0037041D01*
X0139968Y0036752D01*
X0140007Y0036462D01*
X0140038Y0036170D01*
X0140063Y0035878D01*
X0140081Y0035586D01*
X0140091Y0035293D01*
X0140095Y0035000D01*
X0121345Y0062500D02*
X0108379Y0062221D01*
X0108379Y0074393D01*
X0108379Y0062221D02*
X0108377Y0062109D01*
X0108371Y0061997D01*
X0108362Y0061885D01*
X0108348Y0061774D01*
X0108331Y0061663D01*
X0108310Y0061553D01*
X0108286Y0061443D01*
X0108257Y0061335D01*
X0108225Y0061228D01*
X0108189Y0061121D01*
X0108150Y0061016D01*
X0108107Y0060913D01*
X0108061Y0060811D01*
X0108011Y0060710D01*
X0107958Y0060611D01*
X0107901Y0060515D01*
X0107841Y0060420D01*
X0107778Y0060327D01*
X0107712Y0060237D01*
X0107642Y0060149D01*
X0107570Y0060063D01*
X0107495Y0059979D01*
X0107417Y0059899D01*
X0107337Y0059821D01*
X0107253Y0059746D01*
X0107167Y0059674D01*
X0107079Y0059604D01*
X0106989Y0059538D01*
X0106896Y0059475D01*
X0106801Y0059415D01*
X0106705Y0059358D01*
X0106606Y0059305D01*
X0106505Y0059255D01*
X0106403Y0059209D01*
X0106300Y0059166D01*
X0106195Y0059127D01*
X0106088Y0059091D01*
X0105981Y0059059D01*
X0105873Y0059030D01*
X0105763Y0059006D01*
X0105653Y0058985D01*
X0105542Y0058968D01*
X0105431Y0058954D01*
X0105319Y0058945D01*
X0105207Y0058939D01*
X0105095Y0058937D01*
X0083845Y0055000D02*
X0083851Y0054524D01*
X0083868Y0054049D01*
X0083897Y0053574D01*
X0083937Y0053100D01*
X0083989Y0052627D01*
X0084052Y0052156D01*
X0084126Y0051686D01*
X0084212Y0051218D01*
X0084309Y0050752D01*
X0084417Y0050289D01*
X0084536Y0049829D01*
X0084667Y0049371D01*
X0084808Y0048917D01*
X0084961Y0048466D01*
X0085124Y0048020D01*
X0085298Y0047577D01*
X0085483Y0047139D01*
X0085678Y0046705D01*
X0085884Y0046276D01*
X0086100Y0045852D01*
X0086326Y0045433D01*
X0086562Y0045020D01*
X0086808Y0044613D01*
X0087064Y0044212D01*
X0087330Y0043818D01*
X0087605Y0043429D01*
X0087889Y0043048D01*
X0088182Y0042674D01*
X0088484Y0042306D01*
X0088796Y0041946D01*
X0089115Y0041594D01*
X0089443Y0041250D01*
X0089780Y0040913D01*
X0090124Y0040585D01*
X0090476Y0040266D01*
X0090836Y0039954D01*
X0091204Y0039652D01*
X0091578Y0039359D01*
X0091959Y0039075D01*
X0092348Y0038800D01*
X0092742Y0038534D01*
X0093143Y0038278D01*
X0093550Y0038032D01*
X0093963Y0037796D01*
X0094382Y0037570D01*
X0094806Y0037354D01*
X0095235Y0037148D01*
X0095669Y0036953D01*
X0096107Y0036768D01*
X0096550Y0036594D01*
X0096996Y0036431D01*
X0097447Y0036278D01*
X0097901Y0036137D01*
X0098359Y0036006D01*
X0098819Y0035887D01*
X0099282Y0035779D01*
X0099748Y0035682D01*
X0100216Y0035596D01*
X0100686Y0035522D01*
X0101157Y0035459D01*
X0101630Y0035407D01*
X0102104Y0035367D01*
X0102579Y0035338D01*
X0103054Y0035321D01*
X0103530Y0035315D01*
X0083845Y0055000D02*
X0083845Y0058750D01*
X0083841Y0059082D01*
X0083829Y0059414D01*
X0083809Y0059746D01*
X0083781Y0060077D01*
X0083745Y0060407D01*
X0083701Y0060737D01*
X0083649Y0061065D01*
X0083589Y0061392D01*
X0083521Y0061717D01*
X0083445Y0062041D01*
X0083362Y0062362D01*
X0083271Y0062682D01*
X0083172Y0062999D01*
X0083066Y0063314D01*
X0082951Y0063626D01*
X0082830Y0063935D01*
X0082701Y0064241D01*
X0082565Y0064544D01*
X0082421Y0064844D01*
X0082270Y0065140D01*
X0082112Y0065432D01*
X0081947Y0065721D01*
X0081775Y0066005D01*
X0081596Y0066285D01*
X0081411Y0066561D01*
X0081219Y0066832D01*
X0081020Y0067098D01*
X0080816Y0067360D01*
X0080604Y0067617D01*
X0080387Y0067868D01*
X0080164Y0068114D01*
X0079934Y0068355D01*
X0079700Y0068589D01*
X0079459Y0068819D01*
X0079213Y0069042D01*
X0078962Y0069259D01*
X0078705Y0069471D01*
X0078443Y0069675D01*
X0078177Y0069874D01*
X0077906Y0070066D01*
X0077630Y0070251D01*
X0077350Y0070430D01*
X0077066Y0070602D01*
X0076777Y0070767D01*
X0076485Y0070925D01*
X0076189Y0071076D01*
X0075889Y0071220D01*
X0075586Y0071356D01*
X0075280Y0071485D01*
X0074971Y0071606D01*
X0074659Y0071721D01*
X0074344Y0071827D01*
X0074027Y0071926D01*
X0073707Y0072017D01*
X0073386Y0072100D01*
X0073062Y0072176D01*
X0072737Y0072244D01*
X0072410Y0072304D01*
X0072082Y0072356D01*
X0071752Y0072400D01*
X0071422Y0072436D01*
X0071091Y0072464D01*
X0070759Y0072484D01*
X0070427Y0072496D01*
X0070095Y0072500D01*
X0067595Y0072500D01*
X0067293Y0072504D01*
X0066991Y0072515D01*
X0066690Y0072533D01*
X0066389Y0072558D01*
X0066088Y0072591D01*
X0065789Y0072631D01*
X0065491Y0072678D01*
X0065193Y0072733D01*
X0064898Y0072794D01*
X0064604Y0072863D01*
X0064311Y0072939D01*
X0064021Y0073022D01*
X0063732Y0073112D01*
X0063446Y0073209D01*
X0063162Y0073312D01*
X0062881Y0073423D01*
X0062603Y0073540D01*
X0062327Y0073664D01*
X0062055Y0073795D01*
X0061786Y0073932D01*
X0061520Y0074075D01*
X0061258Y0074225D01*
X0060999Y0074382D01*
X0060745Y0074544D01*
X0060494Y0074713D01*
X0060248Y0074887D01*
X0060005Y0075068D01*
X0059768Y0075254D01*
X0059534Y0075446D01*
X0059306Y0075644D01*
X0059082Y0075847D01*
X0058864Y0076055D01*
X0058650Y0076269D01*
X0058442Y0076487D01*
X0058239Y0076711D01*
X0058041Y0076939D01*
X0057849Y0077173D01*
X0057663Y0077410D01*
X0057482Y0077653D01*
X0057308Y0077899D01*
X0057139Y0078150D01*
X0056977Y0078404D01*
X0056820Y0078663D01*
X0056670Y0078925D01*
X0056527Y0079191D01*
X0056390Y0079460D01*
X0056259Y0079732D01*
X0056135Y0080008D01*
X0056018Y0080286D01*
X0055907Y0080567D01*
X0055804Y0080851D01*
X0055707Y0081137D01*
X0055617Y0081426D01*
X0055534Y0081716D01*
X0055458Y0082009D01*
X0055389Y0082303D01*
X0055328Y0082598D01*
X0055273Y0082896D01*
X0055226Y0083194D01*
X0055186Y0083493D01*
X0055153Y0083794D01*
X0055128Y0084095D01*
X0055110Y0084396D01*
X0055099Y0084698D01*
X0055095Y0085000D01*
X0055095Y0107500D01*
X0065095Y0107500D02*
X0065095Y0103750D01*
X0065098Y0103539D01*
X0065105Y0103327D01*
X0065118Y0103116D01*
X0065136Y0102906D01*
X0065159Y0102695D01*
X0065187Y0102486D01*
X0065220Y0102277D01*
X0065258Y0102069D01*
X0065301Y0101862D01*
X0065349Y0101656D01*
X0065402Y0101451D01*
X0065460Y0101248D01*
X0065523Y0101046D01*
X0065591Y0100846D01*
X0065664Y0100647D01*
X0065741Y0100450D01*
X0065823Y0100256D01*
X0065910Y0100063D01*
X0066001Y0099872D01*
X0066097Y0099684D01*
X0066198Y0099498D01*
X0066303Y0099314D01*
X0066412Y0099133D01*
X0066526Y0098955D01*
X0066644Y0098779D01*
X0066766Y0098607D01*
X0066892Y0098437D01*
X0067023Y0098271D01*
X0067157Y0098108D01*
X0067296Y0097948D01*
X0067438Y0097791D01*
X0067584Y0097638D01*
X0067733Y0097489D01*
X0067886Y0097343D01*
X0068043Y0097201D01*
X0068203Y0097062D01*
X0068366Y0096928D01*
X0068532Y0096797D01*
X0068702Y0096671D01*
X0068874Y0096549D01*
X0069050Y0096431D01*
X0069228Y0096317D01*
X0069409Y0096208D01*
X0069593Y0096103D01*
X0069779Y0096002D01*
X0069967Y0095906D01*
X0070158Y0095815D01*
X0070351Y0095728D01*
X0070545Y0095646D01*
X0070742Y0095569D01*
X0070941Y0095496D01*
X0071141Y0095428D01*
X0071343Y0095365D01*
X0071546Y0095307D01*
X0071751Y0095254D01*
X0071957Y0095206D01*
X0072164Y0095163D01*
X0072372Y0095125D01*
X0072581Y0095092D01*
X0072790Y0095064D01*
X0073001Y0095041D01*
X0073211Y0095023D01*
X0073422Y0095010D01*
X0073634Y0095003D01*
X0073845Y0095000D01*
X0086560Y0095000D01*
X0086608Y0095002D01*
X0086655Y0095007D01*
X0086702Y0095017D01*
X0086748Y0095030D01*
X0086792Y0095046D01*
X0086836Y0095066D01*
X0086877Y0095089D01*
X0086917Y0095116D01*
X0086954Y0095145D01*
X0086989Y0095178D01*
X0087022Y0095213D01*
X0087051Y0095250D01*
X0087078Y0095290D01*
X0087101Y0095331D01*
X0087121Y0095375D01*
X0087137Y0095419D01*
X0087150Y0095465D01*
X0087160Y0095512D01*
X0087165Y0095559D01*
X0087167Y0095607D01*
X0121345Y0062501D02*
X0123473Y0061662D01*
X0125579Y0060771D01*
X0127664Y0059831D01*
X0129725Y0058840D01*
X0131762Y0057800D01*
X0133773Y0056710D01*
X0135757Y0055573D01*
X0137713Y0054388D01*
X0139640Y0053156D01*
X0141537Y0051877D01*
X0143402Y0050554D01*
X0145235Y0049185D01*
X0147034Y0047773D01*
X0148798Y0046318D01*
X0150527Y0044821D01*
X0152219Y0043282D01*
X0153873Y0041703D01*
X0155489Y0040084D01*
X0157065Y0038427D01*
X0158601Y0036732D01*
X0160095Y0035000D01*
M02*
