%
M48
M72
T01C0.0240
T02C0.0320
T03C0.0400
T04C0.0440
T05C0.1180
T06C0.1181
T07C0.1300
%
T01
X6927Y37793
X6927Y39207
X8342Y39207
T02
X5260Y35250
X5260Y32250
X5876Y14734
X5260Y13375
X5260Y12375
X7143Y12016
X8717Y9561
X10838Y7439
X14010Y3500
X16010Y3500
T03
X24010Y22300
X39135Y37625
X39760Y8875
X4885Y14750
T04
X5510Y10750
X6510Y10750
X7510Y10750
T05
X10510Y5894
X12360Y4713
X10510Y3531
T06
X42760Y41000
X5260Y41000
X34260Y3500
X42760Y3500
T07
X6510Y3850
M30
