G75*
%MOIN*%
%OFA0B0*%
%FSLAX25Y25*%
%IPPOS*%
%LPD*%
%AMOC8*
5,1,8,0,0,1.08239X$1,22.5*
%
%ADD10C,0.00000*%
%ADD11OC8,0.05600*%
%ADD12C,0.07000*%
%ADD13C,0.13400*%
%ADD14OC8,0.06400*%
%ADD15C,0.16211*%
%ADD16C,0.16200*%
%ADD17C,0.01120*%
D10*
X0042595Y0015000D02*
X0042595Y0597500D01*
X0050095Y0605000D02*
X0625095Y0605000D01*
X0632595Y0597500D02*
X0632595Y0015000D01*
X0042595Y0015000D01*
X0081095Y0033500D02*
X0081097Y0033661D01*
X0081103Y0033821D01*
X0081113Y0033982D01*
X0081127Y0034142D01*
X0081145Y0034302D01*
X0081166Y0034461D01*
X0081192Y0034620D01*
X0081222Y0034778D01*
X0081255Y0034935D01*
X0081293Y0035092D01*
X0081334Y0035247D01*
X0081379Y0035401D01*
X0081428Y0035554D01*
X0081481Y0035706D01*
X0081537Y0035857D01*
X0081598Y0036006D01*
X0081661Y0036154D01*
X0081729Y0036300D01*
X0081800Y0036444D01*
X0081874Y0036586D01*
X0081952Y0036727D01*
X0082034Y0036865D01*
X0082119Y0037002D01*
X0082207Y0037136D01*
X0082299Y0037268D01*
X0082394Y0037398D01*
X0082492Y0037526D01*
X0082593Y0037651D01*
X0082697Y0037773D01*
X0082804Y0037893D01*
X0082914Y0038010D01*
X0083027Y0038125D01*
X0083143Y0038236D01*
X0083262Y0038345D01*
X0083383Y0038450D01*
X0083507Y0038553D01*
X0083633Y0038653D01*
X0083761Y0038749D01*
X0083892Y0038842D01*
X0084026Y0038932D01*
X0084161Y0039019D01*
X0084299Y0039102D01*
X0084438Y0039182D01*
X0084580Y0039258D01*
X0084723Y0039331D01*
X0084868Y0039400D01*
X0085015Y0039466D01*
X0085163Y0039528D01*
X0085313Y0039586D01*
X0085464Y0039641D01*
X0085617Y0039692D01*
X0085771Y0039739D01*
X0085926Y0039782D01*
X0086082Y0039821D01*
X0086238Y0039857D01*
X0086396Y0039888D01*
X0086554Y0039916D01*
X0086713Y0039940D01*
X0086873Y0039960D01*
X0087033Y0039976D01*
X0087193Y0039988D01*
X0087354Y0039996D01*
X0087515Y0040000D01*
X0087675Y0040000D01*
X0087836Y0039996D01*
X0087997Y0039988D01*
X0088157Y0039976D01*
X0088317Y0039960D01*
X0088477Y0039940D01*
X0088636Y0039916D01*
X0088794Y0039888D01*
X0088952Y0039857D01*
X0089108Y0039821D01*
X0089264Y0039782D01*
X0089419Y0039739D01*
X0089573Y0039692D01*
X0089726Y0039641D01*
X0089877Y0039586D01*
X0090027Y0039528D01*
X0090175Y0039466D01*
X0090322Y0039400D01*
X0090467Y0039331D01*
X0090610Y0039258D01*
X0090752Y0039182D01*
X0090891Y0039102D01*
X0091029Y0039019D01*
X0091164Y0038932D01*
X0091298Y0038842D01*
X0091429Y0038749D01*
X0091557Y0038653D01*
X0091683Y0038553D01*
X0091807Y0038450D01*
X0091928Y0038345D01*
X0092047Y0038236D01*
X0092163Y0038125D01*
X0092276Y0038010D01*
X0092386Y0037893D01*
X0092493Y0037773D01*
X0092597Y0037651D01*
X0092698Y0037526D01*
X0092796Y0037398D01*
X0092891Y0037268D01*
X0092983Y0037136D01*
X0093071Y0037002D01*
X0093156Y0036865D01*
X0093238Y0036727D01*
X0093316Y0036586D01*
X0093390Y0036444D01*
X0093461Y0036300D01*
X0093529Y0036154D01*
X0093592Y0036006D01*
X0093653Y0035857D01*
X0093709Y0035706D01*
X0093762Y0035554D01*
X0093811Y0035401D01*
X0093856Y0035247D01*
X0093897Y0035092D01*
X0093935Y0034935D01*
X0093968Y0034778D01*
X0093998Y0034620D01*
X0094024Y0034461D01*
X0094045Y0034302D01*
X0094063Y0034142D01*
X0094077Y0033982D01*
X0094087Y0033821D01*
X0094093Y0033661D01*
X0094095Y0033500D01*
X0094093Y0033339D01*
X0094087Y0033179D01*
X0094077Y0033018D01*
X0094063Y0032858D01*
X0094045Y0032698D01*
X0094024Y0032539D01*
X0093998Y0032380D01*
X0093968Y0032222D01*
X0093935Y0032065D01*
X0093897Y0031908D01*
X0093856Y0031753D01*
X0093811Y0031599D01*
X0093762Y0031446D01*
X0093709Y0031294D01*
X0093653Y0031143D01*
X0093592Y0030994D01*
X0093529Y0030846D01*
X0093461Y0030700D01*
X0093390Y0030556D01*
X0093316Y0030414D01*
X0093238Y0030273D01*
X0093156Y0030135D01*
X0093071Y0029998D01*
X0092983Y0029864D01*
X0092891Y0029732D01*
X0092796Y0029602D01*
X0092698Y0029474D01*
X0092597Y0029349D01*
X0092493Y0029227D01*
X0092386Y0029107D01*
X0092276Y0028990D01*
X0092163Y0028875D01*
X0092047Y0028764D01*
X0091928Y0028655D01*
X0091807Y0028550D01*
X0091683Y0028447D01*
X0091557Y0028347D01*
X0091429Y0028251D01*
X0091298Y0028158D01*
X0091164Y0028068D01*
X0091029Y0027981D01*
X0090891Y0027898D01*
X0090752Y0027818D01*
X0090610Y0027742D01*
X0090467Y0027669D01*
X0090322Y0027600D01*
X0090175Y0027534D01*
X0090027Y0027472D01*
X0089877Y0027414D01*
X0089726Y0027359D01*
X0089573Y0027308D01*
X0089419Y0027261D01*
X0089264Y0027218D01*
X0089108Y0027179D01*
X0088952Y0027143D01*
X0088794Y0027112D01*
X0088636Y0027084D01*
X0088477Y0027060D01*
X0088317Y0027040D01*
X0088157Y0027024D01*
X0087997Y0027012D01*
X0087836Y0027004D01*
X0087675Y0027000D01*
X0087515Y0027000D01*
X0087354Y0027004D01*
X0087193Y0027012D01*
X0087033Y0027024D01*
X0086873Y0027040D01*
X0086713Y0027060D01*
X0086554Y0027084D01*
X0086396Y0027112D01*
X0086238Y0027143D01*
X0086082Y0027179D01*
X0085926Y0027218D01*
X0085771Y0027261D01*
X0085617Y0027308D01*
X0085464Y0027359D01*
X0085313Y0027414D01*
X0085163Y0027472D01*
X0085015Y0027534D01*
X0084868Y0027600D01*
X0084723Y0027669D01*
X0084580Y0027742D01*
X0084438Y0027818D01*
X0084299Y0027898D01*
X0084161Y0027981D01*
X0084026Y0028068D01*
X0083892Y0028158D01*
X0083761Y0028251D01*
X0083633Y0028347D01*
X0083507Y0028447D01*
X0083383Y0028550D01*
X0083262Y0028655D01*
X0083143Y0028764D01*
X0083027Y0028875D01*
X0082914Y0028990D01*
X0082804Y0029107D01*
X0082697Y0029227D01*
X0082593Y0029349D01*
X0082492Y0029474D01*
X0082394Y0029602D01*
X0082299Y0029732D01*
X0082207Y0029864D01*
X0082119Y0029998D01*
X0082034Y0030135D01*
X0081952Y0030273D01*
X0081874Y0030414D01*
X0081800Y0030556D01*
X0081729Y0030700D01*
X0081661Y0030846D01*
X0081598Y0030994D01*
X0081537Y0031143D01*
X0081481Y0031294D01*
X0081428Y0031446D01*
X0081379Y0031599D01*
X0081334Y0031753D01*
X0081293Y0031908D01*
X0081255Y0032065D01*
X0081222Y0032222D01*
X0081192Y0032380D01*
X0081166Y0032539D01*
X0081145Y0032698D01*
X0081127Y0032858D01*
X0081113Y0033018D01*
X0081103Y0033179D01*
X0081097Y0033339D01*
X0081095Y0033500D01*
X0042596Y0597500D02*
X0042667Y0597749D01*
X0042743Y0597995D01*
X0042826Y0598239D01*
X0042915Y0598482D01*
X0043009Y0598722D01*
X0043110Y0598960D01*
X0043216Y0599195D01*
X0043327Y0599428D01*
X0043445Y0599658D01*
X0043567Y0599885D01*
X0043696Y0600109D01*
X0043829Y0600330D01*
X0043968Y0600547D01*
X0044112Y0600761D01*
X0044261Y0600972D01*
X0044415Y0601179D01*
X0044575Y0601382D01*
X0044739Y0601581D01*
X0044908Y0601777D01*
X0045081Y0601968D01*
X0045259Y0602154D01*
X0045442Y0602337D01*
X0045628Y0602515D01*
X0045819Y0602688D01*
X0046015Y0602857D01*
X0046214Y0603021D01*
X0046417Y0603181D01*
X0046624Y0603335D01*
X0046835Y0603484D01*
X0047049Y0603628D01*
X0047266Y0603767D01*
X0047487Y0603900D01*
X0047711Y0604029D01*
X0047938Y0604151D01*
X0048168Y0604269D01*
X0048401Y0604380D01*
X0048636Y0604486D01*
X0048874Y0604587D01*
X0049114Y0604681D01*
X0049357Y0604770D01*
X0049601Y0604853D01*
X0049847Y0604929D01*
X0050096Y0605000D01*
X0625095Y0605000D02*
X0625344Y0604929D01*
X0625590Y0604853D01*
X0625834Y0604770D01*
X0626077Y0604681D01*
X0626317Y0604587D01*
X0626555Y0604486D01*
X0626790Y0604380D01*
X0627023Y0604269D01*
X0627253Y0604151D01*
X0627480Y0604029D01*
X0627704Y0603900D01*
X0627925Y0603767D01*
X0628142Y0603628D01*
X0628356Y0603484D01*
X0628567Y0603335D01*
X0628774Y0603181D01*
X0628977Y0603021D01*
X0629176Y0602857D01*
X0629372Y0602688D01*
X0629563Y0602515D01*
X0629749Y0602337D01*
X0629932Y0602154D01*
X0630110Y0601968D01*
X0630283Y0601777D01*
X0630452Y0601581D01*
X0630616Y0601382D01*
X0630776Y0601179D01*
X0630930Y0600972D01*
X0631079Y0600761D01*
X0631223Y0600547D01*
X0631362Y0600330D01*
X0631495Y0600109D01*
X0631624Y0599885D01*
X0631746Y0599658D01*
X0631864Y0599428D01*
X0631975Y0599195D01*
X0632081Y0598960D01*
X0632182Y0598722D01*
X0632276Y0598482D01*
X0632365Y0598239D01*
X0632448Y0597995D01*
X0632524Y0597749D01*
X0632595Y0597500D01*
D11*
X0197595Y0027500D03*
X0177595Y0027500D03*
X0057595Y0127500D03*
X0057595Y0157500D03*
X0057595Y0177500D03*
X0057595Y0187500D03*
D12*
X0077595Y0105800D02*
X0077595Y0099200D01*
X0087595Y0099200D02*
X0087595Y0105800D01*
X0097595Y0105800D02*
X0097595Y0099200D01*
D13*
X0087595Y0033500D03*
D14*
X0057595Y0202500D03*
X0337595Y0310000D03*
X0593845Y0578750D03*
X0068845Y0577500D03*
D15*
X0052595Y0595000D03*
X0052595Y0025000D03*
X0622595Y0025000D03*
X0622595Y0595000D03*
D16*
X0142595Y0058937D03*
X0161099Y0047126D03*
X0142595Y0035315D03*
D17*
X0113011Y0106072D02*
X0112451Y0106632D01*
X0114307Y0106632D01*
X0115618Y0105321D01*
X0115618Y0103465D01*
X0114307Y0102154D01*
X0112451Y0102154D01*
X0111140Y0103465D01*
X0111140Y0105321D01*
X0112451Y0106632D01*
X0112799Y0105792D01*
X0113959Y0105792D01*
X0114778Y0104973D01*
X0114778Y0103813D01*
X0113959Y0102994D01*
X0112799Y0102994D01*
X0111980Y0103813D01*
X0111980Y0104973D01*
X0112799Y0105792D01*
X0113147Y0104952D01*
X0113611Y0104952D01*
X0113938Y0104625D01*
X0113938Y0104161D01*
X0113611Y0103834D01*
X0113147Y0103834D01*
X0112820Y0104161D01*
X0112820Y0104625D01*
X0113147Y0104952D01*
X0091798Y0127286D02*
X0091238Y0127846D01*
X0093094Y0127846D01*
X0094405Y0126535D01*
X0094405Y0124679D01*
X0093094Y0123368D01*
X0091238Y0123368D01*
X0089927Y0124679D01*
X0089927Y0126535D01*
X0091238Y0127846D01*
X0091586Y0127006D01*
X0092746Y0127006D01*
X0093565Y0126187D01*
X0093565Y0125027D01*
X0092746Y0124208D01*
X0091586Y0124208D01*
X0090767Y0125027D01*
X0090767Y0126187D01*
X0091586Y0127006D01*
X0091934Y0126166D01*
X0092398Y0126166D01*
X0092725Y0125839D01*
X0092725Y0125375D01*
X0092398Y0125048D01*
X0091934Y0125048D01*
X0091607Y0125375D01*
X0091607Y0125839D01*
X0091934Y0126166D01*
M02*
