%
M48
M72
T01C0.0118
T02C0.0320
T03C0.0400
T04C0.0440
T05C0.1180
T06C0.1181
T07C0.1300
%
T01
X53135Y4125
T02
X5760Y18750
X5760Y17750
X5760Y15750
X5760Y12750
X9217Y12561
X11338Y10439
X17760Y2750
X19760Y2750
T03
X5760Y20250
X33760Y31000
X59385Y57875
X6885Y57750
T04
X7760Y10250
X8760Y10250
X9760Y10250
T05
X14260Y3531
X16110Y4713
X14260Y5894
T06
X62260Y59500
X5260Y59500
X5260Y2500
X62260Y2500
T07
X8760Y3350
M30
